<svg width="155" height="155" viewBox="0 0 155 155" fill="none" xmlns="http://www.w3.org/2000/svg">
<path d="M41.4583 5C45.625 5 62.2917 42.5 62.2917 46.6667C62.2917 55 49.7917 63.3333 45.625 71.6667C41.4583 80 49.7917 88.3333 58.125 96.6667C61.375 99.9167 74.7917 113.333 83.125 109.167C91.4583 105 99.7917 92.5 108.125 92.5C112.292 92.5 149.792 109.167 149.792 113.333C149.792 130 137.292 142.5 124.792 146.667C112.292 150.833 103.958 150.833 87.2917 146.667C70.625 142.5 58.125 138.333 37.2917 117.5C16.4583 96.6667 12.2917 84.1667 8.125 67.5C3.95833 50.8333 3.95833 42.5 8.125 30C12.2917 17.5 24.7917 5 41.4583 5Z" stroke="url(#paint0_linear_34_17)" stroke-width="10" stroke-linecap="round" stroke-linejoin="round"/>
<path d="M91.4583 38.6667C96.9583 41.25 101.958 44.75 106.125 49C110.208 53.0834 113.625 58 116.125 63.3334" stroke="url(#paint1_linear_34_17)" stroke-width="10" stroke-linecap="round" stroke-linejoin="round" stroke-dasharray="4 4"/>
<path d="M99.7917 7.08331C111.542 10.1666 122.042 16.25 130.375 24.5833C138.625 32.9166 144.708 43.3333 147.708 55" stroke="url(#paint2_linear_34_17)" stroke-width="10" stroke-linecap="round" stroke-linejoin="round" stroke-dasharray="6 6"/>
<defs>
<linearGradient id="paint0_linear_34_17" x1="77.3958" y1="5" x2="77.3958" y2="149.792" gradientUnits="userSpaceOnUse">
<stop stop-color="#8B10AD" stop-opacity="0.75"/>
<stop offset="0.5" stop-color="#4099A8" stop-opacity="0.875"/>
<stop offset="1" stop-color="#4586F7" stop-opacity="0.77"/>
</linearGradient>
<linearGradient id="paint1_linear_34_17" x1="103.792" y1="38.6667" x2="103.792" y2="63.3334" gradientUnits="userSpaceOnUse">
<stop stop-color="#8B10AD" stop-opacity="0.75"/>
<stop offset="0.5" stop-color="#4099A8" stop-opacity="0.875"/>
<stop offset="1" stop-color="#4586F7" stop-opacity="0.77"/>
</linearGradient>
<linearGradient id="paint2_linear_34_17" x1="123.75" y1="7.08331" x2="123.75" y2="55" gradientUnits="userSpaceOnUse">
<stop stop-color="#8B10AD" stop-opacity="0.75"/>
<stop offset="0.5" stop-color="#4099A8" stop-opacity="0.875"/>
<stop offset="1" stop-color="#4586F7" stop-opacity="0.77"/>
</linearGradient>
</defs>
</svg>
