<svg width="256" height="265" viewBox="0 0 256 265" fill="none" xmlns="http://www.w3.org/2000/svg">
<path d="M144.203 50.8396C150.789 44.2666 161.303 40.8046 167.813 34.1576C194.788 61.2986 221.877 88.3336 248.916 115.419C251.352 117.927 254.322 120.235 255.273 123.774C256.202 126.077 255.918 128.586 255.96 131.007C255.964 170.664 255.956 210.317 255.966 249.97C256.565 257.795 249.105 265.104 241.314 264.482C227.242 264.482 213.173 264.486 199.1 264.482C199.043 245.533 199.11 226.584 199.062 207.635C199.096 186.802 199.077 165.973 199.07 145.145C181.507 127.609 163.982 110.035 146.43 92.4906C140.308 86.3146 134.09 80.2286 128.024 74.0006C131.35 70.8166 140.762 54.2726 144.204 50.8386" fill="#4586F7" fill-opacity="0.77"/>
<path d="M56.8494 145.22C56.9284 166.023 56.8414 186.83 56.8944 207.635C56.8564 226.584 56.9134 245.53 56.8684 264.479C42.0604 264.472 27.2524 264.483 12.4444 264.472C6.26036 263.695 0.814363 258.489 0.0273626 252.255C-0.0226374 235.535 0.0123626 218.813 0.0163626 202.095C9.88336 192.32 16.0394 179.625 25.8724 169.815C34.9814 160.667 47.7824 154.409 56.8494 145.22Z" fill="#3BAB59" fill-opacity="0.78"/>
<path d="M127.246 0.0255447C128.47 0.177545 129.926 -0.304455 131.013 0.381545C133.968 0.957545 136.559 2.66654 138.637 4.79954C147.465 13.6475 156.301 22.4875 165.138 31.3275C166.024 32.2745 167.058 33.0895 167.812 34.1575C157.9 44.2775 147.802 54.2135 137.818 64.2625C134.544 67.4985 131.349 70.8175 128.023 74.0005C123.635 78.1345 119.483 82.5105 115.185 86.7395C95.7474 106.242 76.2414 125.673 56.8484 145.22C47.7814 154.41 38.6044 163.496 29.4944 172.643C19.6624 182.453 9.88238 192.32 0.0153849 202.095C-0.0186151 180.661 0.0153849 159.225 0.00838491 137.794C0.0313849 133.748 -0.0566151 129.701 0.0833849 125.658C0.0433849 124.838 0.659385 124.191 0.621385 123.373C1.19438 122.411 1.70538 121.41 2.26238 120.44C3.66438 118.576 5.40738 117.015 7.03338 115.352C43.8144 78.4945 80.6064 41.6455 117.398 4.79554C118.903 3.21554 120.626 1.77954 122.722 1.06354C124.192 0.571545 125.647 -0.144455 127.246 0.0255447Z" fill="#8B10AD" fill-opacity="0.75"/>
</svg>
