<svg width="200" height="200" viewBox="0 0 200 200" fill="none" xmlns="http://www.w3.org/2000/svg">
<mask id="path-1-inside-1_35_58" fill="white">
<path d="M100.002 0C67.3 0 40.5 26.72 40.5 59.332C40.5 71.968 44.536 83.712 51.366 93.364L92.74 164.89C98.534 172.46 102.386 171.022 107.204 164.49L152.84 86.83C153.76 85.162 154.484 83.386 155.114 81.572C158.009 74.5147 159.498 66.96 159.498 59.332C159.5 26.72 132.708 0 100.002 0ZM100.002 27.8C117.614 27.8 131.618 41.772 131.618 59.332C131.618 76.892 117.614 90.86 100.002 90.86C82.392 90.86 68.382 76.896 68.382 59.334C68.382 41.772 82.392 27.802 100 27.802"/>
</mask>
<path d="M51.366 93.364L60.0221 88.3569L59.7931 87.961L59.529 87.5877L51.366 93.364ZM92.74 164.89L84.0839 169.897L84.4069 170.456L84.799 170.968L92.74 164.89ZM107.204 164.49L115.252 170.426L115.561 170.006L115.826 169.556L107.204 164.49ZM152.84 86.83L161.462 91.8964L161.531 91.7789L161.596 91.6597L152.84 86.83ZM155.114 81.572L145.862 77.7769L145.758 78.0314L145.667 78.2912L155.114 81.572ZM159.498 59.332L149.498 59.3314V59.3321L159.498 59.332ZM100.002 -10C61.8045 -10 30.5 21.1698 30.5 59.332H50.5C50.5 32.2702 72.7955 10 100.002 10V-10ZM30.5 59.332C30.5 74.1314 35.2335 87.8779 43.203 99.1403L59.529 87.5877C53.8385 79.5461 50.5 69.8046 50.5 59.332H30.5ZM42.7099 98.3711L84.0839 169.897L101.396 159.883L60.0221 88.3569L42.7099 98.3711ZM84.799 170.968C87.9255 175.053 93.3618 180.729 101.336 179.928C105.114 179.549 108.047 177.779 110.104 176.075C112.136 174.392 113.838 172.343 115.252 170.426L99.1564 158.554C98.6845 159.194 98.2901 159.681 97.9642 160.048C97.6349 160.418 97.4303 160.603 97.3481 160.671C97.1475 160.837 97.852 160.178 99.3395 160.028C100.081 159.954 100.777 160.035 101.355 160.202C101.903 160.359 102.217 160.555 102.284 160.599C102.343 160.638 102.218 160.564 101.915 160.26C101.615 159.959 101.204 159.495 100.681 158.812L84.799 170.968ZM115.826 169.556L161.462 91.8964L144.218 81.7636L98.5824 159.424L115.826 169.556ZM161.596 91.6597C162.885 89.3236 163.823 86.9766 164.561 84.8528L145.667 78.2912C145.145 79.7954 144.635 81.0004 144.084 82.0003L161.596 91.6597ZM164.366 85.3671C167.755 77.1054 169.498 68.2616 169.498 59.3319L149.498 59.3321C149.498 65.6584 148.263 71.9239 145.862 77.7769L164.366 85.3671ZM169.498 59.3326C169.5 21.1711 138.205 -10 100.002 -10V10C127.211 10 149.5 32.2689 149.498 59.3314L169.498 59.3326ZM100.002 37.8C112.115 37.8 121.618 47.3188 121.618 59.332H141.618C141.618 36.2252 123.113 17.8 100.002 17.8V37.8ZM121.618 59.332C121.618 71.3435 112.117 80.86 100.002 80.86V100.86C123.111 100.86 141.618 82.4405 141.618 59.332H121.618ZM100.002 80.86C87.8859 80.86 78.382 71.3442 78.382 59.334H58.382C58.382 82.4478 76.8981 100.86 100.002 100.86V80.86ZM78.382 59.334C78.382 47.3209 87.8888 37.802 100 37.802V17.802C76.8952 17.802 58.382 36.2231 58.382 59.334H78.382Z" fill="url(#paint0_linear_35_58)" mask="url(#path-1-inside-1_35_58)"/>
<path d="M34.01 153.57C27.5155 157.558 25 161.746 25 165.714C25 172.012 30.6635 179.351 44.3916 185.38C57.7113 191.23 76.9815 195 100 195C123.019 195 142.289 191.23 155.608 185.38C169.337 179.351 175 172.012 175 165.714C175 161.746 172.484 157.556 165.988 153.568C167.725 155.604 169 158.145 169 161.144C169 166.206 165.45 169.919 161.769 172.405C157.915 175.009 152.666 177.157 146.628 178.882C134.486 182.351 118.002 184.43 100 184.43C81.9982 184.43 65.5141 182.351 53.3717 178.882C47.3345 177.157 42.0853 175.009 38.2306 172.405C34.5507 169.919 31.0007 166.207 31 161.145L34.01 153.57ZM34.01 153.57C32.2732 155.606 30.9996 158.146 31 161.144L34.01 153.57Z" stroke="url(#paint1_linear_35_58)" stroke-opacity="0.75" stroke-width="10"/>
<defs>
<linearGradient id="paint0_linear_35_58" x1="99.999" y1="0" x2="99.999" y2="170.001" gradientUnits="userSpaceOnUse">
<stop stop-color="#8B10AD" stop-opacity="0.75"/>
<stop offset="0.5" stop-color="#4099A8" stop-opacity="0.885"/>
<stop offset="1" stop-color="#4586F7" stop-opacity="0.77"/>
</linearGradient>
<linearGradient id="paint1_linear_35_58" x1="100" y1="97.816" x2="100" y2="200" gradientUnits="userSpaceOnUse">
<stop stop-color="#8B10AD" stop-opacity="0.75"/>
<stop offset="0.5" stop-color="#4099A8" stop-opacity="0.885"/>
<stop offset="1" stop-color="#4586F7" stop-opacity="0.75"/>
</linearGradient>
</defs>
</svg>
