<svg width="200" height="200" viewBox="0 0 200 200" fill="none" xmlns="http://www.w3.org/2000/svg">
<g clip-path="url(#clip0_35_51)">
<path d="M169.222 157.056H172.84L170.284 154.496L131.176 115.334L136.889 109.621L176.717 149.45L179.278 152.01V148.389V51.1666V47.5594L176.72 50.1031L105.887 120.547C104.086 122.337 101.65 123.342 99.1111 123.342C96.572 123.342 94.136 122.337 92.3353 120.547L23.2803 51.8256L20.7222 49.2799V52.8889V149.111V152.821L23.3007 150.154L62.3701 109.731L68.2114 115.37L30.366 154.513L27.9077 157.056H31.4444H169.222ZM29.5 42.9444H25.8663L28.4419 45.5076L98.053 114.785L99.1107 115.838L100.169 114.786L169.835 45.508L172.413 42.9444H168.778H29.5ZM22.2222 34.8333H177.778C180.327 34.8333 182.771 35.8459 184.574 37.6483C186.376 39.4508 187.389 41.8954 187.389 44.4444V155.556C187.389 158.105 186.376 160.549 184.574 162.352C182.771 164.154 180.327 165.167 177.778 165.167H22.2222C19.6732 165.167 17.2285 164.154 15.4261 162.352C13.6237 160.549 12.6111 158.105 12.6111 155.556V44.4444C12.6111 41.8954 13.6237 39.4508 15.4261 37.6483C17.2285 35.8459 19.6732 34.8333 22.2222 34.8333Z" stroke="url(#paint0_linear_35_51)" stroke-opacity="0.78" stroke-width="3"/>
</g>
<defs>
<linearGradient id="paint0_linear_35_51" x1="100" y1="33.3333" x2="100" y2="166.667" gradientUnits="userSpaceOnUse">
<stop stop-color="#8B10AD" stop-opacity="0.75"/>
<stop offset="0.5" stop-color="#4099A8" stop-opacity="0.885"/>
<stop offset="1" stop-color="#4586F7" stop-opacity="0.77"/>
</linearGradient>
<clipPath id="clip0_35_51">
<rect width="200" height="200" fill="white"/>
</clipPath>
</defs>
</svg>
