<svg width="167" height="156" viewBox="0 0 167 156" fill="none" xmlns="http://www.w3.org/2000/svg">
<path d="M33.3333 130.833H32.2978L31.5656 131.566L12.3989 150.732C11.3555 151.776 10.3688 152.288 9.44053 152.469C8.51393 152.651 7.4192 152.547 6.08255 151.976C4.74616 151.405 3.89657 150.678 3.36461 149.863C2.83106 149.045 2.4978 147.955 2.50001 146.462V146.458V16.6667C2.50001 12.7524 3.86562 9.46516 6.66628 6.66927C9.46898 3.87133 12.7585 2.5051 16.6682 2.5H150C153.914 2.5 157.205 3.86575 160.007 6.66777C162.809 9.4697 164.171 12.7568 164.167 16.6636V16.6667V116.667C164.167 120.582 162.803 123.874 160.006 126.675C157.211 129.475 153.923 130.838 150.003 130.833H150H33.3333ZM150 119.167H152.5V116.667V16.6667V14.1667H150H16.6667H14.1667V16.6667V126.042V131.985L18.4149 127.829L27.2695 119.167H150ZM41.6667 97.5L41.6549 97.5C39.9459 97.5081 38.6168 96.9562 37.5011 95.8406C36.3852 94.7246 35.8293 93.3908 35.8333 91.6726C35.8374 89.945 36.397 88.6091 37.5042 87.498C38.6064 86.392 39.9366 85.8333 41.6667 85.8333H91.6667C93.3968 85.8333 94.727 86.392 95.8292 87.498C96.9364 88.6091 97.496 89.945 97.5 91.6726C97.5041 93.3935 96.9492 94.7236 95.8406 95.8322C94.7317 96.9411 93.3969 97.5 91.6667 97.5L41.6667 97.5ZM41.6667 72.5L41.6549 72.5C39.9459 72.5081 38.6168 71.9562 37.5011 70.8406C36.3852 69.7246 35.8293 68.3908 35.8333 66.6726C35.8374 64.945 36.397 63.6091 37.5042 62.498C38.6064 61.392 39.9366 60.8333 41.6667 60.8333H125C126.73 60.8333 128.06 61.392 129.163 62.498C130.27 63.6091 130.829 64.945 130.833 66.6726C130.837 68.3935 130.283 69.7236 129.174 70.8322C128.065 71.9411 126.73 72.5 125 72.5L41.6667 72.5ZM41.6667 47.5L41.6549 47.5C39.9459 47.5081 38.6168 46.9562 37.5011 45.8406C36.3851 44.7246 35.8293 43.3908 35.8333 41.6726C35.8374 39.945 36.397 38.6091 37.5042 37.498C38.6064 36.392 39.9366 35.8333 41.6667 35.8333H125C126.73 35.8333 128.06 36.392 129.163 37.498C130.27 38.6091 130.829 39.945 130.833 41.6726C130.837 43.3935 130.283 44.7236 129.174 45.8322L130.942 47.6L129.174 45.8322C128.065 46.9411 126.73 47.5 125 47.5L41.6667 47.5Z" stroke="url(#paint0_linear_35_49)" stroke-width="5"/>
<defs>
<linearGradient id="paint0_linear_35_49" x1="83.3334" y1="0" x2="83.3334" y2="155.051" gradientUnits="userSpaceOnUse">
<stop stop-color="#8B10AD" stop-opacity="0.75"/>
<stop offset="0.5" stop-color="#4099A8" stop-opacity="0.88"/>
<stop offset="1" stop-color="#4586F7" stop-opacity="0.77"/>
</linearGradient>
</defs>
</svg>
