<svg width="196" height="196" viewBox="0 0 196 196" fill="none" xmlns="http://www.w3.org/2000/svg">
<path d="M190.714 147.857V176.429C190.714 180.217 189.209 183.851 186.53 186.53C183.851 189.209 180.217 190.714 176.429 190.714H147.857M147.857 5H176.429C180.217 5 183.851 6.5051 186.53 9.18419C189.209 11.8633 190.714 15.4969 190.714 19.2857V47.8571M5 47.8571V19.2857C5 15.4969 6.5051 11.8633 9.18419 9.18419C11.8633 6.5051 15.4969 5 19.2857 5H47.8571M47.8571 190.714H19.2857C15.4969 190.714 11.8633 189.209 9.18419 186.53C6.5051 183.851 5 180.217 5 176.429V147.857M97.8571 90.7143C105.435 90.7143 112.702 87.7041 118.06 82.3459C123.418 76.9877 126.429 69.7205 126.429 62.1429C126.429 54.5652 123.418 47.298 118.06 41.9398C112.702 36.5816 105.435 33.5714 97.8571 33.5714C90.2795 33.5714 83.0123 36.5816 77.6541 41.9398C72.2959 47.298 69.2857 54.5652 69.2857 62.1429C69.2857 69.7205 72.2959 76.9877 77.6541 82.3459C83.0123 87.7041 90.2795 90.7143 97.8571 90.7143ZM152.186 155C148.493 143.493 141.243 133.456 131.479 126.335C121.715 119.213 109.942 115.376 97.8571 115.376C85.7723 115.376 73.9995 119.213 64.2356 126.335C54.4717 133.456 47.221 143.493 43.5286 155H152.186Z" stroke="url(#paint0_linear_38_58)" stroke-width="10" stroke-linecap="round" stroke-linejoin="round"/>
<defs>
<linearGradient id="paint0_linear_38_58" x1="97.8571" y1="5" x2="97.8571" y2="190.714" gradientUnits="userSpaceOnUse">
<stop stop-color="#8B10AD" stop-opacity="0.75"/>
<stop offset="0.5" stop-color="#4099A8" stop-opacity="0.88"/>
<stop offset="1" stop-color="#4586F7" stop-opacity="0.75"/>
</linearGradient>
</defs>
</svg>
