<svg version="1.1" id="Layer_1" xmlns="http://www.w3.org/2000/svg" xmlns:xlink="http://www.w3.org/1999/xlink" x="0px" y="0px"
	 width="100%" viewBox="0 0 1414 2000" enable-background="new 0 0 1414 2000" xml:space="preserve">
<path fill="#FFFFFF" opacity="1.000000" stroke="none" 
	d="
M1285.000000,2001.000000 
	C856.666809,2001.000000 428.833588,2001.000000 1.000287,2001.000000 
	C1.000191,1334.333618 1.000191,667.667297 1.000096,1.000734 
	C472.332886,1.000489 943.665771,1.000489 1414.999023,1.000245 
	C1414.999268,667.666016 1414.999268,1334.332031 1414.999634,2000.999023 
	C1371.833374,2001.000000 1328.666626,2001.000000 1285.000000,2001.000000 
M211.010193,949.502686 
	C211.010193,945.671021 210.829727,941.828003 211.070847,938.011597 
	C211.244247,935.266907 211.256714,932.066589 212.676086,929.976074 
	C213.997665,928.029663 217.084259,927.281677 219.554245,925.917480 
	C214.092010,925.917480 208.648911,925.917480 203.205811,925.917480 
	C197.768066,925.917480 192.330338,925.917480 186.892593,925.917480 
	C193.617645,927.881775 195.070267,929.643250 195.087677,936.619019 
	C195.103897,943.116089 195.091187,949.613281 195.091202,956.110413 
	C195.091202,962.991150 195.091202,969.871887 195.091202,977.763855 
	C175.743256,959.363159 157.251938,941.777161 137.882248,923.355835 
	C138.322937,927.590088 138.875015,930.500061 138.888947,933.412598 
	C138.987701,954.069397 138.956741,974.726868 139.018173,995.383911 
	C139.029007,999.027039 137.405518,1001.467957 134.023499,1002.581848 
	C127.901550,1004.598083 122.849312,1001.055481 122.819687,994.586121 
	C122.735771,976.261292 122.795105,957.935791 122.784744,939.610596 
	C122.781067,933.117432 121.993057,926.251648 131.255676,924.523438 
	C118.944649,924.979309 107.291824,925.345337 95.697464,926.371704 
	C91.710793,926.724609 87.509987,928.110168 84.053947,930.130615 
	C79.752617,932.645203 78.824005,938.436340 81.081299,942.504028 
	C83.324852,946.546936 87.032799,947.804199 92.246338,946.289795 
	C86.315948,944.136841 84.211456,941.647278 85.057922,937.348999 
	C86.078224,932.167786 90.251945,931.296143 94.548927,931.038574 
	C98.177208,930.821106 101.828857,930.993774 105.967674,930.993774 
	C105.967674,932.470825 105.967682,934.098450 105.967682,935.726074 
	C105.967682,954.384460 105.968941,973.042847 105.967087,991.701233 
	C105.966278,999.811340 105.159424,1001.021240 97.705833,1003.781372 
	C119.805389,1003.781372 141.592346,1003.781372 164.280472,1003.781372 
	C155.941925,1001.688416 155.008148,1000.428223 155.006073,992.244629 
	C155.004562,986.247314 155.005753,980.249939 155.005753,974.252625 
	C155.005737,967.186096 155.005753,960.119507 155.005753,951.943970 
	C174.329910,970.333130 192.765244,987.876404 211.010193,1005.238525 
	C211.010193,986.707458 211.010193,968.604614 211.010193,949.502686 
M141.296112,1102.401733 
	C140.742783,1090.858276 135.263107,1083.431396 123.269028,1082.232666 
	C107.332199,1080.639771 91.205780,1080.944092 75.160820,1080.433350 
	C82.010269,1083.540527 83.046844,1085.028809 83.048378,1092.734741 
	C83.051956,1110.727173 83.050537,1128.719727 83.049080,1146.712158 
	C83.048409,1154.963501 82.361908,1156.000000 74.920563,1158.752563 
	C85.958191,1158.752563 96.755379,1158.752563 108.317314,1158.752563 
	C100.881355,1156.275269 99.932983,1154.904663 99.931396,1147.406494 
	C99.927429,1128.581055 99.930099,1109.755493 99.930107,1090.930054 
	C99.930107,1089.326904 99.930099,1087.723755 99.930099,1086.171997 
	C114.642067,1085.071533 122.044182,1088.748291 122.886307,1098.256470 
	C123.305550,1102.990112 122.656151,1108.399170 120.651711,1112.632080 
	C117.558975,1119.163208 110.276054,1119.237671 104.072708,1120.098267 
	C106.429298,1123.208740 108.743416,1126.019531 110.792267,1129.011841 
	C117.842049,1139.307861 124.689087,1149.744019 131.821274,1159.981934 
	C139.513123,1171.023193 149.543930,1178.999023 163.069611,1181.460693 
	C172.488800,1183.175049 181.800308,1182.710205 190.400421,1177.361572 
	C176.909744,1176.580200 165.467209,1171.473267 156.173065,1161.877930 
	C152.010666,1157.580688 148.231888,1152.908203 144.337540,1148.355957 
	C137.042099,1139.827881 129.789322,1131.263306 122.903564,1123.166504 
	C133.976242,1121.329224 140.234619,1114.869873 141.296112,1102.401733 
M927.781982,996.667175 
	C926.531616,1001.429077 922.651550,1002.816040 918.524170,1003.731934 
	C925.827515,1003.731934 933.130859,1003.731934 940.434204,1003.731934 
	C936.258240,1002.598389 934.633545,1000.151611 935.563904,995.945312 
	C935.885071,994.493103 935.858704,992.966125 936.021851,991.476624 
	C937.175659,980.942566 938.337524,970.409424 939.496826,959.876038 
	C939.830811,959.785828 940.164734,959.695618 940.498718,959.605408 
	C949.778259,975.130493 959.057739,990.655579 967.813721,1005.304749 
	C976.458740,989.808716 985.069458,974.374207 993.680176,958.939636 
	C996.089600,971.181396 997.284424,982.905701 998.731934,994.598694 
	C999.294678,999.144592 999.160461,1002.914246 993.552124,1004.009644 
	C999.009583,1004.009644 1004.467041,1004.009644 1009.924500,1004.009644 
	C1015.229736,1004.009644 1020.534973,1004.009644 1025.840210,1004.009644 
	C1018.999390,1001.901062 1017.097656,1000.147095 1016.250427,993.877441 
	C1014.422913,980.353149 1012.736450,966.809875 1010.947449,953.280273 
	C1009.679626,943.691833 1008.338379,934.113098 1006.825317,923.031555 
	C995.049622,943.136475 984.083801,961.858643 972.794067,981.133850 
	C960.971802,961.732910 949.547913,942.985718 938.124023,924.238586 
	C937.791321,924.370422 937.458618,924.502319 937.125854,924.634155 
	C934.059021,948.369446 930.992188,972.104797 927.781982,996.667175 
M1278.860229,1121.500000 
	C1278.860229,1112.168091 1278.778442,1102.834961 1278.910645,1093.504883 
	C1278.949829,1090.742920 1278.802979,1087.471069 1280.179077,1085.377808 
	C1281.558594,1083.279419 1284.732910,1082.360840 1286.558838,1081.262939 
	C1276.392700,1081.262939 1265.493530,1081.262939 1254.594360,1081.262939 
	C1259.100586,1081.822632 1262.690918,1083.822998 1262.788818,1088.505249 
	C1263.089722,1102.904419 1262.898438,1117.313843 1262.898438,1132.825195 
	C1243.552856,1114.419434 1225.020630,1096.787476 1205.964600,1078.657349 
	C1206.292236,1085.203125 1206.769165,1090.678955 1206.802490,1096.157471 
	C1206.905762,1113.154419 1206.843018,1130.152344 1206.839355,1147.149902 
	C1206.837646,1155.247681 1205.890991,1156.537842 1198.487671,1159.008179 
	C1203.872314,1159.008179 1209.257080,1159.008057 1214.641724,1159.008057 
	C1220.097778,1159.008057 1225.553711,1159.008179 1231.009766,1159.008179 
	C1224.035034,1156.919434 1222.855957,1155.487549 1222.836914,1148.358643 
	C1222.822632,1143.026123 1222.833984,1137.693481 1222.833984,1132.360962 
	C1222.833984,1124.300659 1222.833862,1116.240356 1222.833862,1107.023193 
	C1242.194824,1125.440308 1260.640869,1142.987183 1278.860229,1160.318481 
	C1278.860229,1147.413940 1278.860229,1134.957031 1278.860229,1121.500000 
M314.669281,925.921387 
	C304.282074,925.921387 293.894867,925.921387 282.050171,925.921387 
	C290.907013,928.346008 291.941101,929.735779 291.945160,937.686890 
	C291.948975,945.179749 291.945953,952.672668 291.945953,960.165527 
	C291.945953,965.712158 291.945953,971.258789 291.945953,977.872620 
	C272.552429,959.420044 254.056625,941.821594 234.937851,923.630432 
	C235.271240,929.588074 235.770477,934.661072 235.800079,939.736938 
	C235.902084,957.219727 235.842682,974.703491 235.839340,992.186890 
	C235.837799,1000.241455 234.939163,1001.463074 226.099243,1004.008301 
	C232.873520,1004.008301 238.262894,1004.008362 243.652252,1004.008362 
	C249.104935,1004.008362 254.557617,1004.008301 260.010284,1004.008301 
	C253.040375,1001.919006 251.861984,1000.483154 251.835739,993.373962 
	C251.825912,990.709839 251.833954,988.045654 251.833939,985.381531 
	C251.833908,974.655823 251.833923,963.930054 251.833923,952.018188 
	C271.172607,970.419067 289.606903,987.959351 309.055145,1006.464417 
	C308.588654,1002.951843 308.121063,1001.030457 308.110535,999.106567 
	C307.992188,977.462097 307.917816,955.817200 307.900391,934.172424 
	C307.897125,930.109131 310.076996,927.718933 314.121277,927.003113 
	C314.618347,926.915039 315.022980,926.304688 314.669281,925.921387 
M412.863586,957.659851 
	C411.723907,953.851990 411.063080,949.813660 409.361115,946.276367 
	C402.235046,931.465637 389.328552,925.828186 373.806183,924.410217 
	C346.230591,921.891296 326.755035,937.516479 325.520386,963.299133 
	C324.573547,983.071106 335.178436,998.399475 353.727356,1003.521851 
	C364.713226,1006.555725 375.858490,1006.540710 386.730774,1002.977600 
	C400.434082,998.486694 409.498444,989.336426 412.145020,974.904968 
	C413.122864,969.572876 412.717865,963.987244 412.863586,957.659851 
M1176.474976,1089.023438 
	C1164.538574,1079.532104 1150.760254,1078.190796 1136.299438,1080.012207 
	C1117.052612,1082.436523 1103.348145,1096.793091 1102.073120,1115.783081 
	C1100.617554,1137.461304 1111.147949,1153.796997 1130.655762,1158.521362 
	C1137.627319,1160.209595 1145.195557,1160.516724 1152.386230,1159.997437 
	C1168.707031,1158.818726 1181.684814,1151.502319 1187.114746,1135.317505 
	C1192.794312,1118.388306 1190.781494,1102.467529 1176.474976,1089.023438 
M768.591370,1079.261108 
	C765.772095,1079.514160 762.939819,1079.668701 760.135559,1080.036133 
	C741.399170,1082.491455 728.258789,1095.853027 726.175232,1114.507446 
	C723.921631,1134.685059 733.237000,1151.775269 751.162537,1157.291992 
	C759.351440,1159.812256 768.552551,1160.377930 777.180359,1159.874023 
	C798.550171,1158.626099 812.781372,1143.475830 813.812378,1122.347046 
	C814.887512,1100.314087 802.301941,1084.100098 780.964661,1080.260376 
	C777.213562,1079.585571 773.345276,1079.561768 768.591370,1079.261108 
M463.958008,1082.411743 
	C449.024658,1081.692871 434.091309,1080.973999 419.157959,1080.255127 
	C425.647095,1083.254517 426.997192,1085.009277 427.000763,1091.861206 
	C427.010345,1110.332275 427.058624,1128.803711 426.941345,1147.274048 
	C426.925079,1149.839722 426.721649,1152.837280 425.398438,1154.836182 
	C424.155762,1156.713623 421.315552,1157.533569 419.204681,1158.802856 
	C432.674957,1158.802856 446.273468,1159.137207 459.839905,1158.623535 
	C464.664032,1158.440796 469.683319,1156.796143 474.131805,1154.764282 
	C482.010284,1151.165527 485.603302,1144.555908 485.092407,1135.792114 
	C484.594055,1127.244385 480.072083,1121.614868 472.509247,1118.159668 
	C471.114960,1117.522705 469.609772,1117.128418 468.898163,1116.880615 
	C471.647675,1113.981689 475.187561,1111.474609 477.053345,1108.054199 
	C482.828735,1097.467163 477.474609,1086.936035 463.958008,1082.411743 
M1070.806274,970.880249 
	C1084.183838,971.280273 1093.894409,963.403503 1095.225952,951.071960 
	C1096.647583,937.904602 1089.932007,928.559509 1076.030029,926.743958 
	C1066.023071,925.437073 1055.756592,926.091064 1045.604858,925.930115 
	C1040.795776,925.853821 1035.984375,925.917053 1031.174072,925.917053 
	C1037.866699,928.124268 1039.042358,929.562195 1039.045898,936.330444 
	C1039.055298,954.661316 1038.891602,972.994324 1039.136353,991.321960 
	C1039.219604,997.554810 1038.352905,1002.529297 1031.150635,1003.687805 
	C1041.953979,1003.687805 1052.757446,1003.687805 1064.617920,1003.687805 
	C1056.996094,1001.392212 1055.935303,999.934021 1055.932617,992.772339 
	C1055.925903,974.274780 1055.930298,955.777222 1055.930298,937.279663 
	C1055.930298,935.159973 1055.930298,933.040222 1055.930298,930.974670 
	C1069.134399,929.813599 1075.090454,932.849976 1076.915039,941.577148 
	C1078.138428,947.428406 1077.990723,953.189392 1074.533569,958.414368 
	C1071.107666,963.592102 1065.841064,965.552002 1059.665161,965.881409 
	C1059.704468,966.381348 1059.743896,966.881226 1059.783203,967.381104 
	C1063.169678,968.515076 1066.556274,969.648987 1070.806274,970.880249 
M915.981140,1099.512451 
	C915.981140,1096.679199 916.180664,1093.828857 915.938477,1091.016479 
	C915.474915,1085.633423 916.936646,1081.855469 923.018677,1080.913330 
	C914.117920,1080.913330 905.217102,1080.913330 896.316345,1080.913330 
	C894.913940,1080.913330 893.511536,1080.913330 892.109192,1080.913330 
	C898.445557,1083.177612 899.093750,1084.066650 899.097595,1091.069946 
	C899.104553,1103.735840 899.068665,1116.401733 899.107666,1129.067505 
	C899.160461,1146.213379 907.163879,1156.173462 923.979736,1159.492554 
	C928.509644,1160.386597 933.281799,1160.694214 937.893127,1160.423706 
	C957.724915,1159.260864 967.756165,1148.463501 967.816895,1128.602539 
	C967.854553,1116.270142 967.976685,1103.934692 967.753235,1091.606323 
	C967.657776,1086.339722 968.157166,1081.984497 974.567139,1081.137695 
	C967.258972,1081.137695 959.950867,1081.137695 951.848877,1081.137695 
	C959.172852,1083.203125 959.841736,1084.135132 959.846680,1091.454102 
	C959.851379,1098.453613 959.946228,1105.454956 959.822205,1112.452271 
	C959.671814,1120.934937 959.892212,1129.478271 958.927185,1137.877686 
	C957.853088,1147.226196 951.208191,1153.605225 942.638794,1155.118042 
	C927.494080,1157.791992 916.538574,1148.619751 916.079590,1132.504272 
	C915.776062,1121.846680 915.995728,1111.174194 915.981140,1099.512451 
M823.181824,925.908081 
	C816.354675,925.908386 809.527527,925.908875 802.700378,925.908997 
	C796.067871,925.909180 789.435303,925.908997 782.802795,925.908997 
	C789.573364,928.374207 790.821655,929.952026 790.826843,936.908203 
	C790.840454,955.058472 790.885437,973.208984 790.773804,991.358582 
	C790.756836,994.113770 790.674133,997.293152 789.333862,999.490967 
	C788.101379,1001.512024 785.132568,1002.474304 783.166504,1003.748901 
	C801.830627,1003.748901 820.862122,1003.748901 840.092834,1003.748901 
	C841.748169,996.302063 843.355896,989.069336 844.963623,981.836548 
	C835.802002,1000.222290 828.315796,1000.258667 807.897095,998.467590 
	C807.897095,988.381775 807.897095,978.310181 807.897095,967.560120 
	C816.955933,969.779358 829.019348,962.425049 832.634033,979.171570 
	C832.634033,969.429443 832.634033,961.450195 832.634033,952.582886 
	C828.770142,963.982849 826.595093,963.908508 807.834900,962.486450 
	C807.834900,952.068665 807.834900,941.650879 807.834900,930.781616 
	C812.868469,930.781616 817.678467,930.516235 822.442749,930.869080 
	C825.986816,931.131592 830.145264,931.259644 832.792419,933.166077 
	C835.417603,935.056702 836.493713,939.098145 837.982422,941.725464 
	C837.982422,936.509827 837.982422,930.471741 837.982422,924.581116 
	C833.295959,925.029175 828.706055,925.468079 823.181824,925.908081 
M161.805588,1080.909180 
	C160.124466,1080.909180 158.443359,1080.909180 156.762238,1080.909180 
	C163.707535,1083.468384 164.825974,1084.959717 164.828964,1092.317505 
	C164.836380,1110.468140 164.833771,1128.618652 164.830338,1146.769287 
	C164.828827,1154.734863 163.894974,1156.106689 156.383911,1158.789307 
	C175.814011,1158.789307 194.832077,1158.789307 214.068710,1158.789307 
	C215.732529,1151.348877 217.358154,1144.079224 218.983780,1136.809570 
	C209.434738,1155.745239 201.891724,1154.997681 181.860443,1153.509888 
	C181.860443,1143.434814 181.860443,1133.364014 181.860443,1122.569336 
	C190.867371,1124.843994 202.957993,1117.364502 206.676819,1132.428589 
	C206.676819,1124.450684 206.676819,1116.472778 206.676819,1107.800293 
	C202.489929,1119.003540 200.929947,1118.835815 181.801300,1117.531128 
	C181.801300,1107.121338 181.801300,1096.705688 181.801300,1085.781738 
	C186.958878,1085.781738 191.910706,1085.774902 196.862488,1085.783081 
	C207.106369,1085.800049 209.581772,1087.786011 211.947876,1097.600952 
	C211.947876,1091.557129 211.947876,1085.513428 211.947876,1080.466553 
	C195.550644,1080.614014 179.141647,1080.761597 161.805588,1080.909180 
M618.673706,1087.535889 
	C618.673706,1084.795166 618.673706,1082.054565 618.673706,1080.328003 
	C599.689087,1080.328003 581.395020,1080.328003 563.100952,1080.328003 
	C569.982971,1083.534912 570.995483,1084.918701 570.997314,1092.297241 
	C571.001953,1110.446167 571.045166,1128.595337 570.947021,1146.743774 
	C570.933044,1149.332764 570.919067,1152.363525 569.634399,1154.380493 
	C568.333191,1156.423096 565.455139,1157.461182 563.603455,1158.712524 
	C582.107483,1158.712524 601.132324,1158.712524 620.353333,1158.712524 
	C622.007019,1151.274292 623.605957,1144.082153 625.204895,1136.890015 
	C615.333191,1155.946045 608.121338,1154.924927 588.122803,1153.504639 
	C588.122803,1143.432129 588.122803,1133.360229 588.122803,1122.971436 
	C593.331543,1122.971436 598.301025,1122.776611 603.248657,1123.021729 
	C609.126831,1123.312988 611.453735,1127.481567 612.690918,1132.531372 
	C612.690918,1124.500122 612.690918,1116.468750 612.690918,1108.437500 
	C610.003540,1118.906616 605.299255,1119.087402 588.143066,1117.391968 
	C588.143066,1106.957275 588.143066,1096.535645 588.143066,1085.894653 
	C594.876221,1085.894653 601.345459,1085.674072 607.791809,1085.963623 
	C613.028870,1086.199097 616.189331,1089.453491 617.169373,1094.662109 
	C617.350281,1095.623657 617.656372,1096.561646 617.904724,1097.510376 
	C618.161011,1097.445312 618.417358,1097.380127 618.673645,1097.315063 
	C618.673645,1094.371094 618.673645,1091.427246 618.673706,1087.535889 
M1191.460938,990.027527 
	C1203.855225,1004.554077 1220.313477,1006.696899 1237.844849,1004.836060 
	C1246.044800,1003.965759 1253.101929,1000.239441 1258.138306,993.426758 
	C1259.067383,992.170044 1260.001099,990.494507 1259.975464,989.028992 
	C1259.874512,983.258545 1259.391602,977.494751 1259.050415,971.728516 
	C1257.272583,975.847717 1256.268921,980.030212 1254.878174,984.079834 
	C1251.213501,994.751038 1243.358398,999.959961 1232.353394,1000.764648 
	C1221.853638,1001.532410 1212.960693,998.115662 1207.800293,988.752808 
	C1199.358276,973.436401 1199.184937,957.424500 1207.231812,941.940002 
	C1212.446533,931.905518 1221.853882,928.325806 1232.888428,929.117004 
	C1243.573975,929.883179 1250.800537,935.487915 1254.793823,945.370422 
	C1255.295532,946.611877 1255.866577,947.825378 1256.950684,950.292603 
	C1256.950684,943.821350 1256.753174,938.820068 1257.026367,933.844727 
	C1257.184082,930.973083 1255.996460,929.753113 1253.536011,928.775513 
	C1242.918579,924.557007 1231.989014,923.644287 1220.695435,924.830322 
	C1187.813110,928.283691 1172.255859,962.051636 1191.460938,990.027527 
M1132.311890,936.681519 
	C1124.137451,955.219666 1115.897949,973.729614 1107.828491,992.313354 
	C1105.448486,997.794495 1102.728394,1002.644958 1096.151001,1003.742188 
	C1103.615112,1003.742188 1111.079346,1003.742188 1119.128784,1003.742188 
	C1113.372437,1001.114014 1112.764160,999.636353 1114.806274,994.404602 
	C1119.613770,982.086975 1119.613892,982.086975 1132.865112,982.086975 
	C1133.031616,982.086975 1133.198242,982.086975 1133.364746,982.086975 
	C1146.155151,982.086975 1146.155151,982.087036 1150.710571,993.804443 
	C1152.975342,999.629761 1152.418945,1001.080566 1146.742554,1003.749634 
	C1158.391724,1003.749634 1169.851318,1003.749634 1181.310913,1003.749634 
	C1175.139282,1002.657715 1172.238159,998.422729 1169.879150,993.173462 
	C1160.076538,971.361145 1150.083374,949.634399 1140.149536,927.881104 
	C1139.505371,926.470825 1138.771606,925.101501 1137.851685,923.256226 
	C1135.921143,928.049866 1134.314087,932.040100 1132.311890,936.681519 
M574.359985,1004.011536 
	C576.762695,1004.011536 579.165405,1004.011536 581.568115,1004.011536 
	C575.149597,1002.601624 572.459229,997.902771 570.100708,992.608154 
	C563.408142,977.583862 556.557495,962.629883 549.739929,947.661560 
	C546.113281,939.699036 542.426086,931.764099 538.608398,923.473938 
	C528.936523,945.391663 519.544739,966.796326 510.036285,988.149048 
	C507.127014,994.682251 505.726898,1002.637756 496.590027,1003.826904 
	C504.163574,1003.826904 511.737152,1003.826904 519.700867,1003.826904 
	C513.575989,1000.948914 513.099426,999.718506 515.510010,993.837646 
	C520.326538,982.087036 520.326599,982.086975 532.937500,982.086975 
	C533.437378,982.086975 533.937317,982.086975 534.437195,982.086975 
	C546.617249,982.086975 546.667419,982.068054 550.962708,993.422302 
	C551.699524,995.369995 552.562866,997.807373 551.984924,999.563416 
	C551.411133,1001.306763 549.092407,1002.475769 547.413208,1004.011658 
	C556.111755,1004.011658 564.754333,1004.011658 574.359985,1004.011536 
M339.002502,1154.521973 
	C336.532898,1155.929321 334.063324,1157.336548 331.124878,1159.011108 
	C335.166901,1159.011108 338.883270,1159.011108 342.599640,1159.011108 
	C346.404510,1159.011108 350.209381,1159.011108 354.014252,1159.011108 
	C348.739990,1156.294312 347.991119,1154.744873 349.883575,1149.778442 
	C354.719818,1137.086304 354.719849,1137.086182 368.133728,1137.086182 
	C368.466553,1137.086182 368.799347,1137.086182 369.132172,1137.086182 
	C381.350128,1137.086182 381.350128,1137.086304 385.776093,1148.338257 
	C388.228333,1154.572510 387.750946,1155.944336 382.166840,1158.724609 
	C393.619141,1158.724609 405.071442,1158.724609 416.523743,1158.724609 
	C410.267822,1157.709106 407.427124,1153.347778 405.081848,1148.139160 
	C395.136627,1126.051758 385.059906,1104.023560 375.010681,1081.983154 
	C374.513916,1080.893677 373.823212,1079.892700 373.202759,1078.815674 
	C365.083954,1097.208862 357.170746,1115.243652 349.158264,1133.234131 
	C346.057953,1140.195312 342.732727,1147.056274 339.002502,1154.521973 
M1337.048828,1141.069702 
	C1337.511353,1148.416626 1334.724609,1152.865234 1328.395020,1154.883789 
	C1314.322754,1159.371582 1301.960083,1150.939819 1300.960938,1136.193115 
	C1300.938232,1135.859131 1300.620483,1135.545044 1299.642456,1133.789551 
	C1298.475586,1138.766357 1297.242432,1142.347168 1296.858032,1146.016846 
	C1296.069946,1153.539673 1297.355469,1155.428223 1304.350708,1157.906494 
	C1312.859863,1160.921387 1321.638062,1161.423584 1330.425293,1159.598755 
	C1341.340942,1157.331787 1348.413452,1150.501709 1349.960083,1141.406128 
	C1351.822388,1130.455078 1347.252197,1122.879272 1337.999878,1117.315063 
	C1330.598999,1112.864380 1323.485107,1107.929565 1316.320190,1103.096680 
	C1312.972534,1100.838501 1310.574097,1097.721191 1311.396606,1093.467896 
	C1312.255249,1089.028076 1315.375366,1086.329224 1319.637451,1084.944214 
	C1329.703491,1081.672485 1337.303345,1085.439453 1342.659302,1096.920776 
	C1343.168213,1091.091309 1343.616577,1085.954956 1344.085205,1080.586182 
	C1336.126343,1080.117188 1328.681274,1079.298096 1321.239624,1079.328613 
	C1309.968384,1079.374878 1301.877930,1085.073730 1299.275024,1094.027710 
	C1296.270874,1104.362427 1299.470703,1112.366699 1309.497681,1119.192871 
	C1316.093018,1123.682739 1322.928223,1127.833862 1329.372681,1132.525879 
	C1332.239136,1134.612793 1334.407227,1137.659058 1337.048828,1141.069702 
M682.653137,1085.769653 
	C687.678406,1085.542847 692.833435,1084.514038 697.694702,1085.300537 
	C703.260254,1086.201416 706.020081,1090.989746 707.758118,1096.193481 
	C708.191040,1091.095703 708.624023,1085.998047 709.138000,1079.945679 
	C699.294434,1079.945679 689.819946,1079.292114 680.479553,1080.131592 
	C671.352966,1080.951782 665.462585,1087.840820 663.741760,1096.804810 
	C661.887268,1106.465576 666.027771,1113.287476 673.542297,1118.535034 
	C681.445496,1124.053955 689.761536,1129.010498 697.428833,1134.829834 
	C705.253052,1140.768311 703.410156,1150.930542 694.293030,1154.522217 
	C680.604065,1159.914673 666.922180,1151.279663 665.981812,1136.665405 
	C665.950806,1136.182739 665.756104,1135.710449 665.637756,1135.233398 
	C665.195679,1135.206665 664.753540,1135.180054 664.311462,1135.153442 
	C663.466309,1138.780884 662.238708,1142.368408 661.856079,1146.043945 
	C661.073608,1153.559692 662.350098,1155.449707 669.379211,1157.910156 
	C678.055969,1160.947510 686.984802,1161.499512 695.928772,1159.441040 
	C705.724731,1157.186279 712.960999,1151.848755 714.916748,1141.366333 
	C716.904724,1130.711548 712.507690,1123.084351 703.379883,1117.586670 
	C696.122009,1113.215088 689.029297,1108.539551 682.093201,1103.671265 
	C674.131531,1098.083130 674.197937,1092.104492 682.653137,1085.769653 
M755.568848,949.927795 
	C751.394470,959.657593 747.220093,969.387329 742.677307,979.975891 
	C736.507141,964.974365 730.667847,950.919067 724.983704,936.801208 
	C724.155151,934.743225 723.305176,932.166321 723.864990,930.235352 
	C724.358765,928.532104 726.808655,927.395996 728.027710,926.330322 
	C717.016174,926.330322 705.591125,926.330322 694.166077,926.330322 
	C699.790649,927.387817 702.803284,930.966919 705.027588,935.812134 
	C715.008240,957.552795 725.111633,979.237061 735.187378,1000.933960 
	C735.990356,1002.662964 736.920288,1004.333008 738.021606,1006.479492 
	C740.100281,1001.445129 741.794617,997.013977 743.737000,992.694458 
	C751.776489,974.816956 759.952087,957.000427 767.943298,939.101501 
	C770.588562,933.176392 772.884460,927.123108 780.491211,926.029907 
	C772.861877,926.029907 765.232483,926.029907 757.369568,926.029907 
	C763.570740,929.102356 763.904541,930.020813 761.266174,936.358337 
	C759.478516,940.652283 757.674072,944.939270 755.568848,949.927795 
M482.642944,954.248840 
	C485.044189,948.957947 487.631104,943.741760 489.796417,938.356018 
	C492.141479,932.523193 494.904938,927.327698 501.844299,926.252808 
	C494.384460,926.252808 486.924652,926.252808 479.464813,926.252808 
	C484.114594,927.671570 485.250732,930.597778 483.506256,934.726257 
	C477.259430,949.510254 470.928040,964.258545 464.313995,979.757751 
	C463.802612,978.844910 463.506653,978.424438 463.315918,977.960632 
	C457.382599,963.531799 451.436798,949.108032 445.549225,934.660522 
	C443.860840,930.517395 445.247620,927.706787 449.541016,926.260376 
	C438.207214,926.260376 426.873444,926.260376 415.539642,926.260376 
	C421.299225,927.298340 424.361908,931.036987 426.634216,935.979858 
	C436.687164,957.847961 446.847595,979.666626 456.976105,1001.500000 
	C457.693695,1003.046875 458.467346,1004.567688 459.257843,1006.188599 
	C467.070129,988.770264 474.664612,971.837402 482.642944,954.248840 
M1311.097412,981.492126 
	C1311.097412,964.582153 1311.097412,947.672180 1311.097412,930.790649 
	C1317.231689,930.790649 1322.747070,930.359375 1328.165039,930.901245 
	C1334.749878,931.559753 1337.179199,936.399902 1338.059692,942.427246 
	C1338.059692,936.399780 1338.059692,930.372375 1338.059692,924.977112 
	C1314.361084,924.977112 1290.877686,924.977112 1267.019653,924.977112 
	C1267.019653,927.417236 1267.019775,930.555359 1267.019775,933.693420 
	C1267.019775,936.651367 1267.019653,939.609314 1267.019653,942.567261 
	C1269.544556,930.566040 1274.646118,929.057373 1294.311646,931.190063 
	C1294.311646,932.947754 1294.311646,934.749817 1294.311646,936.551880 
	C1294.311646,954.362427 1294.220703,972.173706 1294.360596,989.983154 
	C1294.410034,996.276855 1294.769043,1002.423828 1286.521606,1003.713013 
	C1297.355713,1003.713013 1308.189819,1003.713013 1320.019775,1003.713013 
	C1312.295044,1001.420654 1311.112793,999.790710 1311.098511,992.474670 
	C1311.092041,989.145569 1311.097412,985.816528 1311.097412,981.492126 
M1024.749390,1150.069946 
	C1024.749390,1128.651733 1024.749390,1107.233521 1024.749390,1085.795044 
	C1030.798218,1085.795044 1036.287109,1085.414551 1041.700195,1085.891724 
	C1048.421265,1086.484009 1050.427979,1091.747070 1051.740479,1097.424805 
	C1051.740479,1091.370361 1051.740479,1085.315796 1051.740479,1079.982178 
	C1028.043091,1079.982178 1004.548950,1079.982178 981.059204,1079.982178 
	C981.059204,1085.377808 981.059204,1091.395630 981.059204,1097.413574 
	C982.655212,1085.415039 988.933533,1084.129883 1007.932800,1086.166626 
	C1007.932800,1105.745972 1007.844910,1125.363647 1007.983521,1144.979736 
	C1008.028259,1151.307251 1008.255066,1157.396118 1000.066284,1158.710083 
	C1010.888062,1158.710083 1021.709900,1158.710083 1032.531738,1158.710083 
	C1028.433594,1157.501343 1025.055054,1155.853394 1024.749390,1150.069946 
M591.049133,930.745483 
	C596.510986,930.745483 601.972778,930.745483 607.932800,930.745483 
	C607.932800,932.463989 607.932800,934.090637 607.932800,935.717346 
	C607.932800,954.527039 607.935425,973.336792 607.931519,992.146484 
	C607.929932,999.623718 606.835449,1001.192566 599.925659,1003.624146 
	C610.840271,1003.624146 621.686951,1003.624146 632.533691,1003.624146 
	C626.066040,1001.640198 624.760193,1000.025452 624.752563,993.302185 
	C624.730530,973.826660 624.738647,954.351074 624.757874,934.875549 
	C624.759277,933.456604 624.944519,932.037720 625.074097,930.194885 
	C635.489258,931.928528 648.977417,925.247559 651.632446,942.372742 
	C651.632446,936.296021 651.632446,930.219299 651.632446,925.153320 
	C639.564148,925.380066 627.791870,925.774475 616.019592,925.773560 
	C604.291260,925.772644 592.562927,925.375183 581.009888,925.154968 
	C581.009888,930.536621 581.009888,936.562134 581.009888,942.587585 
	C581.863770,936.804688 583.877625,932.239624 591.049133,930.745483 
M831.601501,1152.023682 
	C829.205261,1154.472778 826.809021,1156.921753 824.889099,1158.883911 
	C842.820557,1158.883911 861.784912,1158.883911 881.031982,1158.883911 
	C882.704956,1151.463989 884.363708,1144.107178 886.022400,1136.750488 
	C879.561951,1155.573120 864.545898,1155.165894 848.576416,1153.709595 
	C848.576416,1151.857422 848.576416,1150.071655 848.576416,1148.286011 
	C848.576416,1130.303711 848.670898,1112.320801 848.524658,1094.339600 
	C848.474121,1088.128296 848.370361,1082.245605 856.456909,1081.115723 
	C845.566711,1081.115723 834.676453,1081.115723 823.159058,1081.115723 
	C830.281311,1083.421997 831.809387,1085.179932 831.816467,1091.186035 
	C831.840149,1111.165649 831.789612,1131.145264 831.601501,1152.023682 
M524.613953,1080.916382 
	C514.563049,1080.916382 504.512115,1080.916382 493.147339,1080.916382 
	C501.158264,1083.526611 502.171753,1084.954468 502.175293,1092.363647 
	C502.183929,1110.343994 502.018921,1128.326660 502.265869,1146.303589 
	C502.350433,1152.458374 501.522766,1157.410645 494.471191,1158.673340 
	C513.526001,1158.673340 532.580811,1158.673340 551.645630,1158.673340 
	C553.272522,1151.217407 554.829285,1144.082642 556.386047,1136.947998 
	C547.619812,1154.830566 539.835083,1155.422607 519.011902,1153.419922 
	C519.011902,1133.646362 519.145020,1113.850586 518.933899,1094.058472 
	C518.867310,1087.815674 519.323425,1082.458008 526.853271,1081.079468 
	C526.366028,1081.025513 525.878784,1080.971436 524.613953,1080.916382 
M238.532181,1159.009521 
	C253.830994,1159.009521 269.129822,1159.009521 284.561005,1159.009521 
	C286.227173,1151.372070 287.798889,1144.167480 289.370605,1136.962891 
	C281.170349,1154.815186 272.522156,1155.228882 252.012009,1153.583496 
	C252.012009,1133.484009 252.011154,1113.353516 252.012390,1093.223145 
	C252.012894,1084.986572 252.803604,1083.790039 260.193024,1081.162842 
	C249.083603,1081.162842 238.278534,1081.162842 226.658005,1081.162842 
	C233.900024,1083.352905 235.168015,1085.054443 235.173447,1091.944092 
	C235.187393,1109.610229 235.110641,1127.276611 235.214737,1144.942139 
	C235.251221,1151.130005 235.903870,1157.421509 227.554062,1159.009521 
	C230.885254,1159.009521 234.216461,1159.009521 238.532181,1159.009521 
M910.921021,927.343445 
	C911.948303,927.097229 912.975647,926.851074 914.002930,926.604858 
	C913.973755,926.449097 913.944580,926.293274 913.915405,926.137451 
	C903.100891,926.137451 892.286316,926.137451 880.778870,926.137451 
	C888.135925,928.469482 889.174927,929.933167 889.178162,937.347961 
	C889.185852,955.169495 889.055725,972.992310 889.248962,990.811768 
	C889.315796,996.972046 889.063843,1002.467163 881.474976,1003.694458 
	C892.275330,1003.694458 903.075745,1003.694458 914.951782,1003.694458 
	C907.245667,1001.467041 906.016479,999.849731 906.013184,992.905212 
	C906.004150,973.917786 906.050903,954.930237 905.974121,935.943115 
	C905.959473,932.327881 906.714966,929.349670 910.921021,927.343445 
M301.670166,1083.929688 
	C302.448059,1086.370605 303.875275,1088.804810 303.900391,1091.253540 
	C304.089935,1109.740356 304.005249,1128.229858 304.003723,1146.718628 
	C304.003052,1154.870728 303.284393,1155.954102 295.872650,1158.770142 
	C306.908783,1158.770142 317.721344,1158.770142 329.242798,1158.770142 
	C321.854401,1156.300659 320.863983,1154.890869 320.861572,1147.504761 
	C320.855713,1129.682251 320.979309,1111.858643 320.793915,1094.038086 
	C320.730164,1087.912109 320.805511,1082.327759 328.537933,1081.244873 
	C317.733368,1081.244873 306.928833,1081.244873 295.355347,1081.244873 
	C297.791626,1082.167114 299.437500,1082.790039 301.670166,1083.929688 
M683.187927,982.491333 
	C683.187927,967.846985 683.187134,953.202637 683.188232,938.558289 
	C683.188843,929.886230 683.785706,928.971375 692.001404,925.924988 
	C685.785706,925.924988 680.344299,925.925049 674.902893,925.925049 
	C669.456360,925.925049 664.009827,925.924988 658.563293,925.924988 
	C665.153198,928.139282 666.516846,929.850037 666.527283,936.908875 
	C666.554260,955.214294 666.541077,973.519653 666.534180,991.825073 
	C666.531128,999.925415 665.750916,1001.060486 657.585144,1004.001282 
	C663.913635,1004.001282 669.327637,1004.001343 674.741638,1004.001343 
	C680.222656,1004.001343 685.703674,1004.001282 691.184753,1004.001282 
	C684.542725,1001.518616 683.223633,999.804443 683.190613,992.971619 
	C683.175354,989.809814 683.187927,986.647949 683.187927,982.491333 
M1060.286865,1082.048706 
	C1065.421631,1083.105225 1066.570557,1086.753784 1066.557495,1091.361694 
	C1066.505493,1109.847290 1066.540894,1128.333252 1066.534302,1146.818970 
	C1066.531372,1154.918213 1065.760986,1156.039795 1057.611084,1159.001099 
	C1063.920166,1159.001099 1069.340454,1159.001099 1074.760742,1159.001099 
	C1080.234985,1159.001099 1085.709351,1159.001099 1091.183594,1159.001099 
	C1084.553101,1156.541138 1083.199219,1154.807495 1083.193237,1147.928467 
	C1083.177368,1129.775757 1083.137329,1111.622803 1083.242065,1093.470703 
	C1083.257935,1090.710327 1083.267944,1087.505859 1084.611084,1085.326782 
	C1085.860596,1083.299805 1088.885986,1082.367310 1091.169556,1080.927612 
	C1080.932739,1080.927612 1070.616821,1080.922607 1060.300903,1080.940430 
	C1059.696777,1080.941528 1059.093018,1081.127686 1058.489014,1081.227783 
	C1058.651611,1081.461304 1058.786987,1081.723267 1058.988525,1081.916138 
	C1059.085449,1082.008789 1059.307007,1081.971436 1060.286865,1082.048706 
M28.790508,918.349304 
	C24.589609,923.942139 23.290571,930.037048 26.101252,936.587097 
	C28.425802,942.004150 34.263683,944.275757 38.746689,941.799194 
	C43.089008,939.400452 44.058746,933.674500 40.964802,928.702393 
	C35.963894,920.665771 36.126469,919.252747 43.228523,912.876953 
	C37.179138,911.603638 32.957973,913.926819 28.790508,918.349304 
M62.436035,940.941711 
	C66.059883,937.303955 65.758804,933.303101 63.676407,929.029785 
	C62.330166,926.267151 60.162258,923.347534 60.288372,920.586304 
	C60.407482,917.978394 63.044140,915.485474 64.857231,912.469971 
	C63.149258,912.579224 61.372589,912.427917 59.738567,912.841003 
	C50.202328,915.251526 44.518135,926.679016 48.171318,935.894226 
	C50.627579,942.090149 55.363670,944.006287 62.436035,940.941711 
M1391.859375,1067.645996 
	C1389.106201,1068.692383 1384.897827,1069.028931 1383.956055,1070.959229 
	C1382.684692,1073.565063 1382.902710,1077.922119 1384.280518,1080.603516 
	C1388.398071,1088.617554 1388.626099,1089.561035 1382.584961,1095.425659 
	C1389.434082,1097.106201 1395.817871,1093.181030 1398.545898,1085.611938 
	C1401.385376,1077.732666 1399.126709,1070.982422 1391.859375,1067.645996 
M1377.939941,1079.494141 
	C1377.421265,1077.259399 1377.227417,1074.881470 1376.318970,1072.818481 
	C1374.171143,1067.940918 1368.523193,1065.950439 1364.343628,1068.308472 
	C1360.607178,1070.416504 1359.634155,1075.789795 1362.022217,1080.228882 
	C1363.406738,1082.802490 1365.575073,1085.564331 1365.465576,1088.160278 
	C1365.355835,1090.761963 1362.852417,1093.262695 1361.439331,1095.735474 
	C1370.160278,1096.901978 1375.981934,1091.552979 1377.939941,1079.494141 
z"/>
<path fill="#2C2727" opacity="1.000000" stroke="none" 
	d="
M211.010193,950.002197 
	C211.010193,968.604614 211.010193,986.707458 211.010193,1005.238525 
	C192.765244,987.876404 174.329910,970.333130 155.005753,951.943970 
	C155.005753,960.119507 155.005737,967.186096 155.005753,974.252625 
	C155.005753,980.249939 155.004562,986.247314 155.006073,992.244629 
	C155.008148,1000.428223 155.941925,1001.688416 164.280472,1003.781372 
	C141.592346,1003.781372 119.805389,1003.781372 97.705833,1003.781372 
	C105.159424,1001.021240 105.966278,999.811340 105.967087,991.701233 
	C105.968941,973.042847 105.967682,954.384460 105.967682,935.726074 
	C105.967682,934.098450 105.967674,932.470825 105.967674,930.993774 
	C101.828857,930.993774 98.177208,930.821106 94.548927,931.038574 
	C90.251945,931.296143 86.078224,932.167786 85.057922,937.348999 
	C84.211456,941.647278 86.315948,944.136841 92.246338,946.289795 
	C87.032799,947.804199 83.324852,946.546936 81.081299,942.504028 
	C78.824005,938.436340 79.752617,932.645203 84.053947,930.130615 
	C87.509987,928.110168 91.710793,926.724609 95.697464,926.371704 
	C107.291824,925.345337 118.944649,924.979309 131.255676,924.523438 
	C121.993057,926.251648 122.781067,933.117432 122.784744,939.610596 
	C122.795105,957.935791 122.735771,976.261292 122.819687,994.586121 
	C122.849312,1001.055481 127.901550,1004.598083 134.023499,1002.581848 
	C137.405518,1001.467957 139.029007,999.027039 139.018173,995.383911 
	C138.956741,974.726868 138.987701,954.069397 138.888947,933.412598 
	C138.875015,930.500061 138.322937,927.590088 137.882248,923.355835 
	C157.251938,941.777161 175.743256,959.363159 195.091202,977.763855 
	C195.091202,969.871887 195.091202,962.991150 195.091202,956.110413 
	C195.091187,949.613281 195.103897,943.116089 195.087677,936.619019 
	C195.070267,929.643250 193.617645,927.881775 186.892593,925.917480 
	C192.330338,925.917480 197.768066,925.917480 203.205811,925.917480 
	C208.648911,925.917480 214.092010,925.917480 219.554245,925.917480 
	C217.084259,927.281677 213.997665,928.029663 212.676086,929.976074 
	C211.256714,932.066589 211.244247,935.266907 211.070847,938.011597 
	C210.829727,941.828003 211.010193,945.671021 211.010193,950.002197 
z"/>
<path fill="#2C2727" opacity="1.000000" stroke="none" 
	d="
M141.277573,1102.810303 
	C140.234619,1114.869873 133.976242,1121.329224 122.903564,1123.166504 
	C129.789322,1131.263306 137.042099,1139.827881 144.337540,1148.355957 
	C148.231888,1152.908203 152.010666,1157.580688 156.173065,1161.877930 
	C165.467209,1171.473267 176.909744,1176.580200 190.400421,1177.361572 
	C181.800308,1182.710205 172.488800,1183.175049 163.069611,1181.460693 
	C149.543930,1178.999023 139.513123,1171.023193 131.821274,1159.981934 
	C124.689087,1149.744019 117.842049,1139.307861 110.792267,1129.011841 
	C108.743416,1126.019531 106.429298,1123.208740 104.072708,1120.098267 
	C110.276054,1119.237671 117.558975,1119.163208 120.651711,1112.632080 
	C122.656151,1108.399170 123.305550,1102.990112 122.886307,1098.256470 
	C122.044182,1088.748291 114.642067,1085.071533 99.930099,1086.171997 
	C99.930099,1087.723755 99.930107,1089.326904 99.930107,1090.930054 
	C99.930099,1109.755493 99.927429,1128.581055 99.931396,1147.406494 
	C99.932983,1154.904663 100.881355,1156.275269 108.317314,1158.752563 
	C96.755379,1158.752563 85.958191,1158.752563 74.920563,1158.752563 
	C82.361908,1156.000000 83.048409,1154.963501 83.049080,1146.712158 
	C83.050537,1128.719727 83.051956,1110.727173 83.048378,1092.734741 
	C83.046844,1085.028809 82.010269,1083.540527 75.160820,1080.433350 
	C91.205780,1080.944092 107.332199,1080.639771 123.269028,1082.232666 
	C135.263107,1083.431396 140.742783,1090.858276 141.277573,1102.810303 
z"/>
<path fill="#2C2727" opacity="1.000000" stroke="none" 
	d="
M927.853638,996.253662 
	C930.992188,972.104797 934.059021,948.369446 937.125854,924.634155 
	C937.458618,924.502319 937.791321,924.370422 938.124023,924.238586 
	C949.547913,942.985718 960.971802,961.732910 972.794067,981.133850 
	C984.083801,961.858643 995.049622,943.136475 1006.825317,923.031555 
	C1008.338379,934.113098 1009.679626,943.691833 1010.947449,953.280273 
	C1012.736450,966.809875 1014.422913,980.353149 1016.250427,993.877441 
	C1017.097656,1000.147095 1018.999390,1001.901062 1025.840210,1004.009644 
	C1020.534973,1004.009644 1015.229736,1004.009644 1009.924500,1004.009644 
	C1004.467041,1004.009644 999.009583,1004.009644 993.552124,1004.009644 
	C999.160461,1002.914246 999.294678,999.144592 998.731934,994.598694 
	C997.284424,982.905701 996.089600,971.181396 993.680176,958.939636 
	C985.069458,974.374207 976.458740,989.808716 967.813721,1005.304749 
	C959.057739,990.655579 949.778259,975.130493 940.498718,959.605408 
	C940.164734,959.695618 939.830811,959.785828 939.496826,959.876038 
	C938.337524,970.409424 937.175659,980.942566 936.021851,991.476624 
	C935.858704,992.966125 935.885071,994.493103 935.563904,995.945312 
	C934.633545,1000.151611 936.258240,1002.598389 940.434204,1003.731934 
	C933.130859,1003.731934 925.827515,1003.731934 918.524170,1003.731934 
	C922.651550,1002.816040 926.531616,1001.429077 927.853638,996.253662 
z"/>
<path fill="#2C2727" opacity="1.000000" stroke="none" 
	d="
M1278.860229,1122.000000 
	C1278.860229,1134.957031 1278.860229,1147.413940 1278.860229,1160.318481 
	C1260.640869,1142.987183 1242.194824,1125.440308 1222.833862,1107.023193 
	C1222.833862,1116.240356 1222.833984,1124.300659 1222.833984,1132.360962 
	C1222.833984,1137.693481 1222.822632,1143.026123 1222.836914,1148.358643 
	C1222.855957,1155.487549 1224.035034,1156.919434 1231.009766,1159.008179 
	C1225.553711,1159.008179 1220.097778,1159.008057 1214.641724,1159.008057 
	C1209.257080,1159.008057 1203.872314,1159.008179 1198.487671,1159.008179 
	C1205.890991,1156.537842 1206.837646,1155.247681 1206.839355,1147.149902 
	C1206.843018,1130.152344 1206.905762,1113.154419 1206.802490,1096.157471 
	C1206.769165,1090.678955 1206.292236,1085.203125 1205.964600,1078.657349 
	C1225.020630,1096.787476 1243.552856,1114.419434 1262.898438,1132.825195 
	C1262.898438,1117.313843 1263.089722,1102.904419 1262.788818,1088.505249 
	C1262.690918,1083.822998 1259.100586,1081.822632 1254.594360,1081.262939 
	C1265.493530,1081.262939 1276.392700,1081.262939 1286.558838,1081.262939 
	C1284.732910,1082.360840 1281.558594,1083.279419 1280.179077,1085.377808 
	C1278.802979,1087.471069 1278.949829,1090.742920 1278.910645,1093.504883 
	C1278.778442,1102.834961 1278.860229,1112.168091 1278.860229,1122.000000 
z"/>
<path fill="#2C2727" opacity="1.000000" stroke="none" 
	d="
M315.069885,925.928894 
	C315.022980,926.304688 314.618347,926.915039 314.121277,927.003113 
	C310.076996,927.718933 307.897125,930.109131 307.900391,934.172424 
	C307.917816,955.817200 307.992188,977.462097 308.110535,999.106567 
	C308.121063,1001.030457 308.588654,1002.951843 309.055145,1006.464417 
	C289.606903,987.959351 271.172607,970.419067 251.833923,952.018188 
	C251.833923,963.930054 251.833908,974.655823 251.833939,985.381531 
	C251.833954,988.045654 251.825912,990.709839 251.835739,993.373962 
	C251.861984,1000.483154 253.040375,1001.919006 260.010284,1004.008301 
	C254.557617,1004.008301 249.104935,1004.008362 243.652252,1004.008362 
	C238.262894,1004.008362 232.873520,1004.008301 226.099243,1004.008301 
	C234.939163,1001.463074 235.837799,1000.241455 235.839340,992.186890 
	C235.842682,974.703491 235.902084,957.219727 235.800079,939.736938 
	C235.770477,934.661072 235.271240,929.588074 234.937851,923.630432 
	C254.056625,941.821594 272.552429,959.420044 291.945953,977.872620 
	C291.945953,971.258789 291.945953,965.712158 291.945953,960.165527 
	C291.945953,952.672668 291.948975,945.179749 291.945160,937.686890 
	C291.941101,929.735779 290.907013,928.346008 282.050171,925.921387 
	C293.894867,925.921387 304.282074,925.921387 315.069885,925.928894 
z"/>
<path fill="#2C2727" opacity="1.000000" stroke="none" 
	d="
M412.903564,958.088501 
	C412.717865,963.987244 413.122864,969.572876 412.145020,974.904968 
	C409.498444,989.336426 400.434082,998.486694 386.730774,1002.977600 
	C375.858490,1006.540710 364.713226,1006.555725 353.727356,1003.521851 
	C335.178436,998.399475 324.573547,983.071106 325.520386,963.299133 
	C326.755035,937.516479 346.230591,921.891296 373.806183,924.410217 
	C389.328552,925.828186 402.235046,931.465637 409.361115,946.276367 
	C411.063080,949.813660 411.723907,953.851990 412.903564,958.088501 
M389.560394,988.899353 
	C396.729279,974.149170 397.007568,959.053711 390.967865,944.017822 
	C387.196411,934.628601 380.000336,929.094727 369.476044,929.041565 
	C358.961792,928.988525 351.748993,934.380310 347.853790,943.786011 
	C342.070923,957.749695 342.123169,972.011597 347.794342,986.001648 
	C351.291473,994.628662 357.796814,1000.070740 367.377960,1000.790222 
	C376.840973,1001.500793 384.145569,997.627014 389.560394,988.899353 
z"/>
<path fill="#2C2828" opacity="1.000000" stroke="none" 
	d="
M1176.744873,1089.254761 
	C1190.781494,1102.467529 1192.794312,1118.388306 1187.114746,1135.317505 
	C1181.684814,1151.502319 1168.707031,1158.818726 1152.386230,1159.997437 
	C1145.195557,1160.516724 1137.627319,1160.209595 1130.655762,1158.521362 
	C1111.147949,1153.796997 1100.617554,1137.461304 1102.073120,1115.783081 
	C1103.348145,1096.793091 1117.052612,1082.436523 1136.299438,1080.012207 
	C1150.760254,1078.190796 1164.538574,1079.532104 1176.744873,1089.254761 
M1170.936279,1110.989014 
	C1170.143921,1107.765503 1169.627808,1104.442749 1168.509888,1101.336426 
	C1164.433960,1090.012329 1156.168945,1083.897705 1145.487183,1084.015015 
	C1135.137085,1084.128662 1126.870117,1090.349365 1123.146973,1101.558838 
	C1118.982300,1114.098022 1118.978394,1126.817017 1123.522583,1139.271362 
	C1127.430664,1149.982056 1135.432861,1155.769653 1145.512451,1155.899292 
	C1155.864136,1156.032349 1163.799927,1150.223877 1168.152710,1139.446411 
	C1171.755371,1130.526611 1171.714111,1121.254761 1170.936279,1110.989014 
z"/>
<path fill="#2C2828" opacity="1.000000" stroke="none" 
	d="
M769.061279,1079.249268 
	C773.345276,1079.561768 777.213562,1079.585571 780.964661,1080.260376 
	C802.301941,1084.100098 814.887512,1100.314087 813.812378,1122.347046 
	C812.781372,1143.475830 798.550171,1158.626099 777.180359,1159.874023 
	C768.552551,1160.377930 759.351440,1159.812256 751.162537,1157.291992 
	C733.237000,1151.775269 723.921631,1134.685059 726.175232,1114.507446 
	C728.258789,1095.853027 741.399170,1082.491455 760.135559,1080.036133 
	C762.939819,1079.668701 765.772095,1079.514160 769.061279,1079.249268 
M765.353699,1155.415161 
	C777.845093,1157.236816 787.374084,1151.839600 792.007080,1139.682495 
	C796.854065,1126.963867 796.811584,1113.935791 792.391235,1101.135742 
	C788.466370,1089.770264 780.043274,1083.844482 769.322205,1084.020020 
	C759.023621,1084.188721 750.841064,1090.447510 747.110657,1101.654541 
	C743.056274,1113.834717 743.032593,1126.221558 747.177856,1138.366943 
	C750.042908,1146.761230 755.253357,1153.227051 765.353699,1155.415161 
z"/>
<path fill="#2C2727" opacity="1.000000" stroke="none" 
	d="
M464.333740,1082.562012 
	C477.474609,1086.936035 482.828735,1097.467163 477.053345,1108.054199 
	C475.187561,1111.474609 471.647675,1113.981689 468.898163,1116.880615 
	C469.609772,1117.128418 471.114960,1117.522705 472.509247,1118.159668 
	C480.072083,1121.614868 484.594055,1127.244385 485.092407,1135.792114 
	C485.603302,1144.555908 482.010284,1151.165527 474.131805,1154.764282 
	C469.683319,1156.796143 464.664032,1158.440796 459.839905,1158.623535 
	C446.273468,1159.137207 432.674957,1158.802856 419.204681,1158.802856 
	C421.315552,1157.533569 424.155762,1156.713623 425.398438,1154.836182 
	C426.721649,1152.837280 426.925079,1149.839722 426.941345,1147.274048 
	C427.058624,1128.803711 427.010345,1110.332275 427.000763,1091.861206 
	C426.997192,1085.009277 425.647095,1083.254517 419.157959,1080.255127 
	C434.091309,1080.973999 449.024658,1081.692871 464.333740,1082.562012 
M450.017548,1117.902100 
	C449.523285,1117.839600 449.028992,1117.777100 449.689880,1117.860718 
	C452.712952,1115.268188 457.712311,1112.848755 459.469513,1108.963013 
	C461.329193,1104.850708 460.989746,1099.158691 460.017151,1094.488525 
	C458.580475,1087.590088 453.239197,1085.240112 444.197388,1086.157837 
	C444.197388,1108.659912 444.197388,1131.173218 444.197388,1153.661255 
	C457.777863,1154.568237 464.577759,1149.924683 465.855560,1139.130493 
	C467.269501,1127.186646 462.169342,1120.021851 450.017548,1117.902100 
z"/>
<path fill="#2C2727" opacity="1.000000" stroke="none" 
	d="
M1070.374512,970.831543 
	C1066.556274,969.648987 1063.169678,968.515076 1059.783203,967.381104 
	C1059.743896,966.881226 1059.704468,966.381348 1059.665161,965.881409 
	C1065.841064,965.552002 1071.107666,963.592102 1074.533569,958.414368 
	C1077.990723,953.189392 1078.138428,947.428406 1076.915039,941.577148 
	C1075.090454,932.849976 1069.134399,929.813599 1055.930298,930.974670 
	C1055.930298,933.040222 1055.930298,935.159973 1055.930298,937.279663 
	C1055.930298,955.777222 1055.925903,974.274780 1055.932617,992.772339 
	C1055.935303,999.934021 1056.996094,1001.392212 1064.617920,1003.687805 
	C1052.757446,1003.687805 1041.953979,1003.687805 1031.150635,1003.687805 
	C1038.352905,1002.529297 1039.219604,997.554810 1039.136353,991.321960 
	C1038.891602,972.994324 1039.055298,954.661316 1039.045898,936.330444 
	C1039.042358,929.562195 1037.866699,928.124268 1031.174072,925.917053 
	C1035.984375,925.917053 1040.795776,925.853821 1045.604858,925.930115 
	C1055.756592,926.091064 1066.023071,925.437073 1076.030029,926.743958 
	C1089.932007,928.559509 1096.647583,937.904602 1095.225952,951.071960 
	C1093.894409,963.403503 1084.183838,971.280273 1070.374512,970.831543 
z"/>
<path fill="#2D2828" opacity="1.000000" stroke="none" 
	d="
M915.981140,1100.010376 
	C915.995728,1111.174194 915.776062,1121.846680 916.079590,1132.504272 
	C916.538574,1148.619751 927.494080,1157.791992 942.638794,1155.118042 
	C951.208191,1153.605225 957.853088,1147.226196 958.927185,1137.877686 
	C959.892212,1129.478271 959.671814,1120.934937 959.822205,1112.452271 
	C959.946228,1105.454956 959.851379,1098.453613 959.846680,1091.454102 
	C959.841736,1084.135132 959.172852,1083.203125 951.848877,1081.137695 
	C959.950867,1081.137695 967.258972,1081.137695 974.567139,1081.137695 
	C968.157166,1081.984497 967.657776,1086.339722 967.753235,1091.606323 
	C967.976685,1103.934692 967.854553,1116.270142 967.816895,1128.602539 
	C967.756165,1148.463501 957.724915,1159.260864 937.893127,1160.423706 
	C933.281799,1160.694214 928.509644,1160.386597 923.979736,1159.492554 
	C907.163879,1156.173462 899.160461,1146.213379 899.107666,1129.067505 
	C899.068665,1116.401733 899.104553,1103.735840 899.097595,1091.069946 
	C899.093750,1084.066650 898.445557,1083.177612 892.109192,1080.913330 
	C893.511536,1080.913330 894.913940,1080.913330 896.316345,1080.913330 
	C905.217102,1080.913330 914.117920,1080.913330 923.018677,1080.913330 
	C916.936646,1081.855469 915.474915,1085.633423 915.938477,1091.016479 
	C916.180664,1093.828857 915.981140,1096.679199 915.981140,1100.010376 
z"/>
<path fill="#2F2A2A" opacity="1.000000" stroke="none" 
	d="
M823.648926,925.907471 
	C828.706055,925.468079 833.295959,925.029175 837.982422,924.581116 
	C837.982422,930.471741 837.982422,936.509827 837.982422,941.725464 
	C836.493713,939.098145 835.417603,935.056702 832.792419,933.166077 
	C830.145264,931.259644 825.986816,931.131592 822.442749,930.869080 
	C817.678467,930.516235 812.868469,930.781616 807.834900,930.781616 
	C807.834900,941.650879 807.834900,952.068665 807.832947,962.487427 
	C826.595093,963.908508 828.770142,963.982849 832.634033,952.582886 
	C832.634033,961.450195 832.634033,969.429443 832.634033,979.171570 
	C829.019348,962.425049 816.955933,969.779358 807.897095,967.560120 
	C807.897095,978.310181 807.897095,988.381775 807.897095,998.467590 
	C828.315796,1000.258667 835.802002,1000.222290 844.963623,981.836548 
	C843.355896,989.069336 841.748169,996.302063 840.092834,1003.748901 
	C820.862122,1003.748901 801.830627,1003.748901 783.166504,1003.748901 
	C785.132568,1002.474304 788.101379,1001.512024 789.333862,999.490967 
	C790.674133,997.293152 790.756836,994.113770 790.773804,991.358582 
	C790.885437,973.208984 790.840454,955.058472 790.826843,936.908203 
	C790.821655,929.952026 789.573364,928.374207 782.802795,925.908997 
	C789.435303,925.908997 796.067871,925.909180 802.700378,925.908997 
	C809.527527,925.908875 816.354675,925.908386 823.648926,925.907471 
z"/>
<path fill="#2F2A2A" opacity="1.000000" stroke="none" 
	d="
M162.269135,1080.909180 
	C179.141647,1080.761597 195.550644,1080.614014 211.947876,1080.466553 
	C211.947876,1085.513428 211.947876,1091.557129 211.947876,1097.600952 
	C209.581772,1087.786011 207.106369,1085.800049 196.862488,1085.783081 
	C191.910706,1085.774902 186.958878,1085.781738 181.801300,1085.781738 
	C181.801300,1096.705688 181.801300,1107.121338 181.801300,1117.531128 
	C200.929947,1118.835815 202.489929,1119.003540 206.676819,1107.800293 
	C206.676819,1116.472778 206.676819,1124.450684 206.676819,1132.428589 
	C202.957993,1117.364502 190.867371,1124.843994 181.860443,1122.569336 
	C181.860443,1133.364014 181.860443,1143.434814 181.860443,1153.509888 
	C201.891724,1154.997681 209.434738,1155.745239 218.983780,1136.809570 
	C217.358154,1144.079224 215.732529,1151.348877 214.068710,1158.789307 
	C194.832077,1158.789307 175.814011,1158.789307 156.383911,1158.789307 
	C163.894974,1156.106689 164.828827,1154.734863 164.830338,1146.769287 
	C164.833771,1128.618652 164.836380,1110.468140 164.828964,1092.317505 
	C164.825974,1084.959717 163.707535,1083.468384 156.762238,1080.909180 
	C158.443359,1080.909180 160.124466,1080.909180 162.269135,1080.909180 
z"/>
<path fill="#2E2929" opacity="1.000000" stroke="none" 
	d="
M618.673706,1088.009521 
	C618.673645,1091.427246 618.673645,1094.371094 618.673645,1097.315063 
	C618.417358,1097.380127 618.161011,1097.445312 617.904724,1097.510376 
	C617.656372,1096.561646 617.350281,1095.623657 617.169373,1094.662109 
	C616.189331,1089.453491 613.028870,1086.199097 607.791809,1085.963623 
	C601.345459,1085.674072 594.876221,1085.894653 588.143066,1085.894653 
	C588.143066,1096.535645 588.143066,1106.957275 588.143066,1117.391968 
	C605.299255,1119.087402 610.003540,1118.906616 612.690918,1108.437500 
	C612.690918,1116.468750 612.690918,1124.500122 612.690918,1132.531372 
	C611.453735,1127.481567 609.126831,1123.312988 603.248657,1123.021729 
	C598.301025,1122.776611 593.331543,1122.971436 588.122803,1122.971436 
	C588.122803,1133.360229 588.122803,1143.432129 588.122803,1153.504639 
	C608.121338,1154.924927 615.333191,1155.946045 625.204895,1136.890015 
	C623.605957,1144.082153 622.007019,1151.274292 620.353333,1158.712524 
	C601.132324,1158.712524 582.107483,1158.712524 563.603455,1158.712524 
	C565.455139,1157.461182 568.333191,1156.423096 569.634399,1154.380493 
	C570.919067,1152.363525 570.933044,1149.332764 570.947021,1146.743774 
	C571.045166,1128.595337 571.001953,1110.446167 570.997314,1092.297241 
	C570.995483,1084.918701 569.982971,1083.534912 563.100952,1080.328003 
	C581.395020,1080.328003 599.689087,1080.328003 618.673706,1080.328003 
	C618.673706,1082.054565 618.673706,1084.795166 618.673706,1088.009521 
z"/>
<path fill="#2E2929" opacity="1.000000" stroke="none" 
	d="
M1191.234375,989.749512 
	C1172.255859,962.051636 1187.813110,928.283691 1220.695435,924.830322 
	C1231.989014,923.644287 1242.918579,924.557007 1253.536011,928.775513 
	C1255.996460,929.753113 1257.184082,930.973083 1257.026367,933.844727 
	C1256.753174,938.820068 1256.950684,943.821350 1256.950684,950.292603 
	C1255.866577,947.825378 1255.295532,946.611877 1254.793823,945.370422 
	C1250.800537,935.487915 1243.573975,929.883179 1232.888428,929.117004 
	C1221.853882,928.325806 1212.446533,931.905518 1207.231812,941.940002 
	C1199.184937,957.424500 1199.358276,973.436401 1207.800293,988.752808 
	C1212.960693,998.115662 1221.853638,1001.532410 1232.353394,1000.764648 
	C1243.358398,999.959961 1251.213501,994.751038 1254.878174,984.079834 
	C1256.268921,980.030212 1257.272583,975.847717 1259.050415,971.728516 
	C1259.391602,977.494751 1259.874512,983.258545 1259.975464,989.028992 
	C1260.001099,990.494507 1259.067383,992.170044 1258.138306,993.426758 
	C1253.101929,1000.239441 1246.044800,1003.965759 1237.844849,1004.836060 
	C1220.313477,1006.696899 1203.855225,1004.554077 1191.234375,989.749512 
z"/>
<path fill="#2D2828" opacity="1.000000" stroke="none" 
	d="
M1132.509521,936.355957 
	C1134.314087,932.040100 1135.921143,928.049866 1137.851685,923.256226 
	C1138.771606,925.101501 1139.505371,926.470825 1140.149536,927.881104 
	C1150.083374,949.634399 1160.076538,971.361145 1169.879150,993.173462 
	C1172.238159,998.422729 1175.139282,1002.657715 1181.310913,1003.749634 
	C1169.851318,1003.749634 1158.391724,1003.749634 1146.742554,1003.749634 
	C1152.418945,1001.080566 1152.975342,999.629761 1150.710571,993.804443 
	C1146.155151,982.087036 1146.155151,982.086975 1133.364746,982.086975 
	C1133.198242,982.086975 1133.031616,982.086975 1132.865112,982.086975 
	C1119.613892,982.086975 1119.613770,982.086975 1114.806274,994.404602 
	C1112.764160,999.636353 1113.372437,1001.114014 1119.128784,1003.742188 
	C1111.079346,1003.742188 1103.615112,1003.742188 1096.151001,1003.742188 
	C1102.728394,1002.644958 1105.448486,997.794495 1107.828491,992.313354 
	C1115.897949,973.729614 1124.137451,955.219666 1132.509521,936.355957 
M1132.507080,977.373535 
	C1136.109497,977.373535 1139.712036,977.373535 1144.066284,977.373535 
	C1140.431152,968.148315 1137.069824,959.617981 1133.289185,950.023193 
	C1129.264160,959.708191 1125.735107,968.200073 1121.922729,977.373596 
	C1125.630005,977.373596 1128.570435,977.373596 1132.507080,977.373535 
z"/>
<path fill="#2D2828" opacity="1.000000" stroke="none" 
	d="
M573.878418,1004.011597 
	C564.754333,1004.011658 556.111755,1004.011658 547.413208,1004.011658 
	C549.092407,1002.475769 551.411133,1001.306763 551.984924,999.563416 
	C552.562866,997.807373 551.699524,995.369995 550.962708,993.422302 
	C546.667419,982.068054 546.617249,982.086975 534.437195,982.086975 
	C533.937317,982.086975 533.437378,982.086975 532.937500,982.086975 
	C520.326599,982.086975 520.326538,982.087036 515.510010,993.837646 
	C513.099426,999.718506 513.575989,1000.948914 519.700867,1003.826904 
	C511.737152,1003.826904 504.163574,1003.826904 496.590027,1003.826904 
	C505.726898,1002.637756 507.127014,994.682251 510.036285,988.149048 
	C519.544739,966.796326 528.936523,945.391663 538.608398,923.473938 
	C542.426086,931.764099 546.113281,939.699036 549.739929,947.661560 
	C556.557495,962.629883 563.408142,977.583862 570.100708,992.608154 
	C572.459229,997.902771 575.149597,1002.601624 581.568115,1004.011536 
	C579.165405,1004.011536 576.762695,1004.011536 573.878418,1004.011597 
M535.771484,954.824890 
	C535.131042,953.536987 534.490601,952.249023 533.603149,950.464539 
	C529.809326,959.585449 526.264893,968.106812 522.528687,977.089233 
	C530.041931,977.089233 536.929443,977.089233 544.432739,977.089233 
	C541.531372,969.676147 538.766968,962.612854 535.771484,954.824890 
z"/>
<path fill="#2D2828" opacity="1.000000" stroke="none" 
	d="
M339.256226,1154.242432 
	C342.732727,1147.056274 346.057953,1140.195312 349.158264,1133.234131 
	C357.170746,1115.243652 365.083954,1097.208862 373.202759,1078.815674 
	C373.823212,1079.892700 374.513916,1080.893677 375.010681,1081.983154 
	C385.059906,1104.023560 395.136627,1126.051758 405.081848,1148.139160 
	C407.427124,1153.347778 410.267822,1157.709106 416.523743,1158.724609 
	C405.071442,1158.724609 393.619141,1158.724609 382.165588,1158.720825 
	C387.750946,1155.944336 388.228333,1154.572510 385.776093,1148.338257 
	C381.350128,1137.086304 381.350128,1137.086182 369.132172,1137.086182 
	C368.799347,1137.086182 368.466553,1137.086182 368.133728,1137.086182 
	C354.719849,1137.086182 354.719818,1137.086304 349.883575,1149.778442 
	C347.991119,1154.744873 348.739990,1156.294312 354.014252,1159.011108 
	C350.209381,1159.011108 346.404510,1159.011108 342.599640,1159.011108 
	C338.883270,1159.011108 335.166901,1159.011108 331.124878,1159.011108 
	C334.063324,1157.336548 336.532898,1155.929321 339.256226,1154.242432 
M377.890503,1132.314453 
	C378.176788,1131.830444 378.822266,1131.207886 378.696808,1130.882812 
	C375.478912,1122.544189 372.180573,1114.236450 368.542542,1105.028320 
	C364.599487,1114.521484 361.025024,1123.127075 357.187042,1132.367188 
	C364.391235,1132.367188 370.694824,1132.367188 377.890503,1132.314453 
z"/>
<path fill="#2E2929" opacity="1.000000" stroke="none" 
	d="
M1336.970459,1140.669800 
	C1334.407227,1137.659058 1332.239136,1134.612793 1329.372681,1132.525879 
	C1322.928223,1127.833862 1316.093018,1123.682739 1309.497681,1119.192871 
	C1299.470703,1112.366699 1296.270874,1104.362427 1299.275024,1094.027710 
	C1301.877930,1085.073730 1309.968384,1079.374878 1321.239624,1079.328613 
	C1328.681274,1079.298096 1336.126343,1080.117188 1344.085205,1080.586182 
	C1343.616577,1085.954956 1343.168213,1091.091309 1342.659302,1096.920776 
	C1337.303345,1085.439453 1329.703491,1081.672485 1319.637451,1084.944214 
	C1315.375366,1086.329224 1312.255249,1089.028076 1311.396606,1093.467896 
	C1310.574097,1097.721191 1312.972534,1100.838501 1316.320190,1103.096680 
	C1323.485107,1107.929565 1330.598999,1112.864380 1337.999878,1117.315063 
	C1347.252197,1122.879272 1351.822388,1130.455078 1349.960083,1141.406128 
	C1348.413452,1150.501709 1341.340942,1157.331787 1330.425293,1159.598755 
	C1321.638062,1161.423584 1312.859863,1160.921387 1304.350708,1157.906494 
	C1297.355469,1155.428223 1296.069946,1153.539673 1296.858032,1146.016846 
	C1297.242432,1142.347168 1298.475586,1138.766357 1299.642456,1133.789551 
	C1300.620483,1135.545044 1300.938232,1135.859131 1300.960938,1136.193115 
	C1301.960083,1150.939819 1314.322754,1159.371582 1328.395020,1154.883789 
	C1334.724609,1152.865234 1337.511353,1148.416626 1336.970459,1140.669800 
z"/>
<path fill="#2E2929" opacity="1.000000" stroke="none" 
	d="
M682.290283,1085.929199 
	C674.197937,1092.104492 674.131531,1098.083130 682.093201,1103.671265 
	C689.029297,1108.539551 696.122009,1113.215088 703.379883,1117.586670 
	C712.507690,1123.084351 716.904724,1130.711548 714.916748,1141.366333 
	C712.960999,1151.848755 705.724731,1157.186279 695.928772,1159.441040 
	C686.984802,1161.499512 678.055969,1160.947510 669.379211,1157.910156 
	C662.350098,1155.449707 661.073608,1153.559692 661.856079,1146.043945 
	C662.238708,1142.368408 663.466309,1138.780884 664.311462,1135.153442 
	C664.753540,1135.180054 665.195679,1135.206665 665.637756,1135.233398 
	C665.756104,1135.710449 665.950806,1136.182739 665.981812,1136.665405 
	C666.922180,1151.279663 680.604065,1159.914673 694.293030,1154.522217 
	C703.410156,1150.930542 705.253052,1140.768311 697.428833,1134.829834 
	C689.761536,1129.010498 681.445496,1124.053955 673.542297,1118.535034 
	C666.027771,1113.287476 661.887268,1106.465576 663.741760,1096.804810 
	C665.462585,1087.840820 671.352966,1080.951782 680.479553,1080.131592 
	C689.819946,1079.292114 699.294434,1079.945679 709.138000,1079.945679 
	C708.624023,1085.998047 708.191040,1091.095703 707.758118,1096.193481 
	C706.020081,1090.989746 703.260254,1086.201416 697.694702,1085.300537 
	C692.833435,1084.514038 687.678406,1085.542847 682.290283,1085.929199 
z"/>
<path fill="#2D2828" opacity="1.000000" stroke="none" 
	d="
M755.723022,949.578613 
	C757.674072,944.939270 759.478516,940.652283 761.266174,936.358337 
	C763.904541,930.020813 763.570740,929.102356 757.369568,926.029907 
	C765.232483,926.029907 772.861877,926.029907 780.491211,926.029907 
	C772.884460,927.123108 770.588562,933.176392 767.943298,939.101501 
	C759.952087,957.000427 751.776489,974.816956 743.737000,992.694458 
	C741.794617,997.013977 740.100281,1001.445129 738.021606,1006.479492 
	C736.920288,1004.333008 735.990356,1002.662964 735.187378,1000.933960 
	C725.111633,979.237061 715.008240,957.552795 705.027588,935.812134 
	C702.803284,930.966919 699.790649,927.387817 694.166077,926.330322 
	C705.591125,926.330322 717.016174,926.330322 728.027710,926.330322 
	C726.808655,927.395996 724.358765,928.532104 723.864990,930.235352 
	C723.305176,932.166321 724.155151,934.743225 724.983704,936.801208 
	C730.667847,950.919067 736.507141,964.974365 742.677307,979.975891 
	C747.220093,969.387329 751.394470,959.657593 755.723022,949.578613 
z"/>
<path fill="#2C2727" opacity="1.000000" stroke="none" 
	d="
M482.451050,954.576721 
	C474.664612,971.837402 467.070129,988.770264 459.257843,1006.188599 
	C458.467346,1004.567688 457.693695,1003.046875 456.976105,1001.500000 
	C446.847595,979.666626 436.687164,957.847961 426.634216,935.979858 
	C424.361908,931.036987 421.299225,927.298340 415.539642,926.260376 
	C426.873444,926.260376 438.207214,926.260376 449.541016,926.260376 
	C445.247620,927.706787 443.860840,930.517395 445.549225,934.660522 
	C451.436798,949.108032 457.382599,963.531799 463.315918,977.960632 
	C463.506653,978.424438 463.802612,978.844910 464.313995,979.757751 
	C470.928040,964.258545 477.259430,949.510254 483.506256,934.726257 
	C485.250732,930.597778 484.114594,927.671570 479.464813,926.252808 
	C486.924652,926.252808 494.384460,926.252808 501.844299,926.252808 
	C494.904938,927.327698 492.141479,932.523193 489.796417,938.356018 
	C487.631104,943.741760 485.044189,948.957947 482.451050,954.576721 
z"/>
<path fill="#2D2828" opacity="1.000000" stroke="none" 
	d="
M1311.097412,981.989746 
	C1311.097412,985.816528 1311.092041,989.145569 1311.098511,992.474670 
	C1311.112793,999.790710 1312.295044,1001.420654 1320.019775,1003.713013 
	C1308.189819,1003.713013 1297.355713,1003.713013 1286.521606,1003.713013 
	C1294.769043,1002.423828 1294.410034,996.276855 1294.360596,989.983154 
	C1294.220703,972.173706 1294.311646,954.362427 1294.311646,936.551880 
	C1294.311646,934.749817 1294.311646,932.947754 1294.311646,931.190063 
	C1274.646118,929.057373 1269.544556,930.566040 1267.019653,942.567261 
	C1267.019653,939.609314 1267.019775,936.651367 1267.019775,933.693420 
	C1267.019775,930.555359 1267.019653,927.417236 1267.019653,924.977112 
	C1290.877686,924.977112 1314.361084,924.977112 1338.059692,924.977112 
	C1338.059692,930.372375 1338.059692,936.399780 1338.059692,942.427246 
	C1337.179199,936.399902 1334.749878,931.559753 1328.165039,930.901245 
	C1322.747070,930.359375 1317.231689,930.790649 1311.097412,930.790649 
	C1311.097412,947.672180 1311.097412,964.582153 1311.097412,981.989746 
z"/>
<path fill="#2D2828" opacity="1.000000" stroke="none" 
	d="
M1024.767822,1150.520386 
	C1025.055054,1155.853394 1028.433594,1157.501343 1032.531738,1158.710083 
	C1021.709900,1158.710083 1010.888062,1158.710083 1000.066284,1158.710083 
	C1008.255066,1157.396118 1008.028259,1151.307251 1007.983521,1144.979736 
	C1007.844910,1125.363647 1007.932800,1105.745972 1007.932800,1086.166626 
	C988.933533,1084.129883 982.655212,1085.415039 981.059204,1097.413574 
	C981.059204,1091.395630 981.059204,1085.377808 981.059204,1079.982178 
	C1004.548950,1079.982178 1028.043091,1079.982178 1051.740479,1079.982178 
	C1051.740479,1085.315796 1051.740479,1091.370361 1051.740479,1097.424805 
	C1050.427979,1091.747070 1048.421265,1086.484009 1041.700195,1085.891724 
	C1036.287109,1085.414551 1030.798218,1085.795044 1024.749390,1085.795044 
	C1024.749390,1107.233521 1024.749390,1128.651733 1024.767822,1150.520386 
z"/>
<path fill="#2D2828" opacity="1.000000" stroke="none" 
	d="
M590.613586,930.811646 
	C583.877625,932.239624 581.863770,936.804688 581.009888,942.587585 
	C581.009888,936.562134 581.009888,930.536621 581.009888,925.154968 
	C592.562927,925.375183 604.291260,925.772644 616.019592,925.773560 
	C627.791870,925.774475 639.564148,925.380066 651.632446,925.153320 
	C651.632446,930.219299 651.632446,936.296021 651.632446,942.372742 
	C648.977417,925.247559 635.489258,931.928528 625.074097,930.194885 
	C624.944519,932.037720 624.759277,933.456604 624.757874,934.875549 
	C624.738647,954.351074 624.730530,973.826660 624.752563,993.302185 
	C624.760193,1000.025452 626.066040,1001.640198 632.533691,1003.624146 
	C621.686951,1003.624146 610.840271,1003.624146 599.925659,1003.624146 
	C606.835449,1001.192566 607.929932,999.623718 607.931519,992.146484 
	C607.935425,973.336792 607.932800,954.527039 607.932800,935.717346 
	C607.932800,934.090637 607.932800,932.463989 607.932800,930.745483 
	C601.972778,930.745483 596.510986,930.745483 590.613586,930.811646 
z"/>
<path fill="#2E2929" opacity="1.000000" stroke="none" 
	d="
M831.684509,1151.574219 
	C831.789612,1131.145264 831.840149,1111.165649 831.816467,1091.186035 
	C831.809387,1085.179932 830.281311,1083.421997 823.159058,1081.115723 
	C834.676453,1081.115723 845.566711,1081.115723 856.456909,1081.115723 
	C848.370361,1082.245605 848.474121,1088.128296 848.524658,1094.339600 
	C848.670898,1112.320801 848.576416,1130.303711 848.576416,1148.286011 
	C848.576416,1150.071655 848.576416,1151.857422 848.576416,1153.709595 
	C864.545898,1155.165894 879.561951,1155.573120 886.022400,1136.750488 
	C884.363708,1144.107178 882.704956,1151.463989 881.031982,1158.883911 
	C861.784912,1158.883911 842.820557,1158.883911 824.889099,1158.883911 
	C826.809021,1156.921753 829.205261,1154.472778 831.684509,1151.574219 
z"/>
<path fill="#2C2727" opacity="1.000000" stroke="none" 
	d="
M525.002747,1080.916992 
	C525.878784,1080.971436 526.366028,1081.025513 526.853271,1081.079468 
	C519.323425,1082.458008 518.867310,1087.815674 518.933899,1094.058472 
	C519.145020,1113.850586 519.011902,1133.646362 519.011902,1153.419922 
	C539.835083,1155.422607 547.619812,1154.830566 556.386047,1136.947998 
	C554.829285,1144.082642 553.272522,1151.217407 551.645630,1158.673340 
	C532.580811,1158.673340 513.526001,1158.673340 494.471191,1158.673340 
	C501.522766,1157.410645 502.350433,1152.458374 502.265869,1146.303589 
	C502.018921,1128.326660 502.183929,1110.343994 502.175293,1092.363647 
	C502.171753,1084.954468 501.158264,1083.526611 493.147339,1080.916382 
	C504.512115,1080.916382 514.563049,1080.916382 525.002747,1080.916992 
z"/>
<path fill="#2C2727" opacity="1.000000" stroke="none" 
	d="
M238.039917,1159.009521 
	C234.216461,1159.009521 230.885254,1159.009521 227.554062,1159.009521 
	C235.903870,1157.421509 235.251221,1151.130005 235.214737,1144.942139 
	C235.110641,1127.276611 235.187393,1109.610229 235.173447,1091.944092 
	C235.168015,1085.054443 233.900024,1083.352905 226.658005,1081.162842 
	C238.278534,1081.162842 249.083603,1081.162842 260.193024,1081.162842 
	C252.803604,1083.790039 252.012894,1084.986572 252.012390,1093.223145 
	C252.011154,1113.353516 252.012009,1133.484009 252.012009,1153.583496 
	C272.522156,1155.228882 281.170349,1154.815186 289.370605,1136.962891 
	C287.798889,1144.167480 286.227173,1151.372070 284.561005,1159.009521 
	C269.129822,1159.009521 253.830994,1159.009521 238.039917,1159.009521 
z"/>
<path fill="#2C2727" opacity="1.000000" stroke="none" 
	d="
M910.587402,927.517578 
	C906.714966,929.349670 905.959473,932.327881 905.974121,935.943115 
	C906.050903,954.930237 906.004150,973.917786 906.013184,992.905212 
	C906.016479,999.849731 907.245667,1001.467041 914.951782,1003.694458 
	C903.075745,1003.694458 892.275330,1003.694458 881.474976,1003.694458 
	C889.063843,1002.467163 889.315796,996.972046 889.248962,990.811768 
	C889.055725,972.992310 889.185852,955.169495 889.178162,937.347961 
	C889.174927,929.933167 888.135925,928.469482 880.778870,926.137451 
	C892.286316,926.137451 903.100891,926.137451 913.915405,926.137451 
	C913.944580,926.293274 913.973755,926.449097 914.002930,926.604858 
	C912.975647,926.851074 911.948303,927.097229 910.587402,927.517578 
z"/>
<path fill="#2C2727" opacity="1.000000" stroke="none" 
	d="
M301.376770,1083.671387 
	C299.437500,1082.790039 297.791626,1082.167114 295.355347,1081.244873 
	C306.928833,1081.244873 317.733368,1081.244873 328.537933,1081.244873 
	C320.805511,1082.327759 320.730164,1087.912109 320.793915,1094.038086 
	C320.979309,1111.858643 320.855713,1129.682251 320.861572,1147.504761 
	C320.863983,1154.890869 321.854401,1156.300659 329.242798,1158.770142 
	C317.721344,1158.770142 306.908783,1158.770142 295.872650,1158.770142 
	C303.284393,1155.954102 304.003052,1154.870728 304.003723,1146.718628 
	C304.005249,1128.229858 304.089935,1109.740356 303.900391,1091.253540 
	C303.875275,1088.804810 302.448059,1086.370605 301.376770,1083.671387 
z"/>
<path fill="#292424" opacity="1.000000" stroke="none" 
	d="
M683.187927,982.988708 
	C683.187927,986.647949 683.175354,989.809814 683.190613,992.971619 
	C683.223633,999.804443 684.542725,1001.518616 691.184753,1004.001282 
	C685.703674,1004.001282 680.222656,1004.001343 674.741638,1004.001343 
	C669.327637,1004.001343 663.913635,1004.001282 657.585144,1004.001282 
	C665.750916,1001.060486 666.531128,999.925415 666.534180,991.825073 
	C666.541077,973.519653 666.554260,955.214294 666.527283,936.908875 
	C666.516846,929.850037 665.153198,928.139282 658.563293,925.924988 
	C664.009827,925.924988 669.456360,925.925049 674.902893,925.925049 
	C680.344299,925.925049 685.785706,925.924988 692.001404,925.924988 
	C683.785706,928.971375 683.188843,929.886230 683.188232,938.558289 
	C683.187134,953.202637 683.187927,967.846985 683.187927,982.988708 
z"/>
<path fill="#292424" opacity="1.000000" stroke="none" 
	d="
M1059.879517,1082.020874 
	C1059.307007,1081.971436 1059.085449,1082.008789 1058.988525,1081.916138 
	C1058.786987,1081.723267 1058.651611,1081.461304 1058.489014,1081.227783 
	C1059.093018,1081.127686 1059.696777,1080.941528 1060.300903,1080.940430 
	C1070.616821,1080.922607 1080.932739,1080.927612 1091.169556,1080.927612 
	C1088.885986,1082.367310 1085.860596,1083.299805 1084.611084,1085.326782 
	C1083.267944,1087.505859 1083.257935,1090.710327 1083.242065,1093.470703 
	C1083.137329,1111.622803 1083.177368,1129.775757 1083.193237,1147.928467 
	C1083.199219,1154.807495 1084.553101,1156.541138 1091.183594,1159.001099 
	C1085.709351,1159.001099 1080.234985,1159.001099 1074.760742,1159.001099 
	C1069.340454,1159.001099 1063.920166,1159.001099 1057.611084,1159.001099 
	C1065.760986,1156.039795 1066.531372,1154.918213 1066.534302,1146.818970 
	C1066.540894,1128.333252 1066.505493,1109.847290 1066.557495,1091.361694 
	C1066.570557,1086.753784 1065.421631,1083.105225 1059.879517,1082.020874 
z"/>
<path fill="#2E2929" opacity="1.000000" stroke="none" 
	d="
M29.015787,918.063110 
	C32.957973,913.926819 37.179138,911.603638 43.228523,912.876953 
	C36.126469,919.252747 35.963894,920.665771 40.964802,928.702393 
	C44.058746,933.674500 43.089008,939.400452 38.746689,941.799194 
	C34.263683,944.275757 28.425802,942.004150 26.101252,936.587097 
	C23.290571,930.037048 24.589609,923.942139 29.015787,918.063110 
z"/>
<path fill="#2F2A2A" opacity="1.000000" stroke="none" 
	d="
M62.121246,941.176270 
	C55.363670,944.006287 50.627579,942.090149 48.171318,935.894226 
	C44.518135,926.679016 50.202328,915.251526 59.738567,912.841003 
	C61.372589,912.427917 63.149258,912.579224 64.857231,912.469971 
	C63.044140,915.485474 60.407482,917.978394 60.288372,920.586304 
	C60.162258,923.347534 62.330166,926.267151 63.676407,929.029785 
	C65.758804,933.303101 66.059883,937.303955 62.121246,941.176270 
z"/>
<path fill="#2F2A2A" opacity="1.000000" stroke="none" 
	d="
M1392.228027,1067.738525 
	C1399.126709,1070.982422 1401.385376,1077.732666 1398.545898,1085.611938 
	C1395.817871,1093.181030 1389.434082,1097.106201 1382.584961,1095.425659 
	C1388.626099,1089.561035 1388.398071,1088.617554 1384.280518,1080.603516 
	C1382.902710,1077.922119 1382.684692,1073.565063 1383.956055,1070.959229 
	C1384.897827,1069.028931 1389.106201,1068.692383 1392.228027,1067.738525 
z"/>
<path fill="#2D2828" opacity="1.000000" stroke="none" 
	d="
M1377.923340,1079.915771 
	C1375.981934,1091.552979 1370.160278,1096.901978 1361.439331,1095.735474 
	C1362.852417,1093.262695 1365.355835,1090.761963 1365.465576,1088.160278 
	C1365.575073,1085.564331 1363.406738,1082.802490 1362.022217,1080.228882 
	C1359.634155,1075.789795 1360.607178,1070.416504 1364.343628,1068.308472 
	C1368.523193,1065.950439 1374.171143,1067.940918 1376.318970,1072.818481 
	C1377.227417,1074.881470 1377.421265,1077.259399 1377.923340,1079.915771 
z"/>
<path fill="#FDFDFD" opacity="1.000000" stroke="none" 
	d="
M389.345490,989.198486 
	C384.145569,997.627014 376.840973,1001.500793 367.377960,1000.790222 
	C357.796814,1000.070740 351.291473,994.628662 347.794342,986.001648 
	C342.123169,972.011597 342.070923,957.749695 347.853790,943.786011 
	C351.748993,934.380310 358.961792,928.988525 369.476044,929.041565 
	C380.000336,929.094727 387.196411,934.628601 390.967865,944.017822 
	C397.007568,959.053711 396.729279,974.149170 389.345490,989.198486 
z"/>
<path fill="#FDFDFD" opacity="1.000000" stroke="none" 
	d="
M1170.972412,1111.445312 
	C1171.714111,1121.254761 1171.755371,1130.526611 1168.152710,1139.446411 
	C1163.799927,1150.223877 1155.864136,1156.032349 1145.512451,1155.899292 
	C1135.432861,1155.769653 1127.430664,1149.982056 1123.522583,1139.271362 
	C1118.978394,1126.817017 1118.982300,1114.098022 1123.146973,1101.558838 
	C1126.870117,1090.349365 1135.137085,1084.128662 1145.487183,1084.015015 
	C1156.168945,1083.897705 1164.433960,1090.012329 1168.509888,1101.336426 
	C1169.627808,1104.442749 1170.143921,1107.765503 1170.972412,1111.445312 
z"/>
<path fill="#FDFDFD" opacity="1.000000" stroke="none" 
	d="
M764.951965,1155.325073 
	C755.253357,1153.227051 750.042908,1146.761230 747.177856,1138.366943 
	C743.032593,1126.221558 743.056274,1113.834717 747.110657,1101.654541 
	C750.841064,1090.447510 759.023621,1084.188721 769.322205,1084.020020 
	C780.043274,1083.844482 788.466370,1089.770264 792.391235,1101.135742 
	C796.811584,1113.935791 796.854065,1126.963867 792.007080,1139.682495 
	C787.374084,1151.839600 777.845093,1157.236816 764.951965,1155.325073 
z"/>
<path fill="#FCFCFC" opacity="1.000000" stroke="none" 
	d="
M450.400055,1117.928955 
	C462.169342,1120.021851 467.269501,1127.186646 465.855560,1139.130493 
	C464.577759,1149.924683 457.777863,1154.568237 444.197388,1153.661255 
	C444.197388,1131.173218 444.197388,1108.659912 444.197388,1086.157837 
	C453.239197,1085.240112 458.580475,1087.590088 460.017151,1094.488525 
	C460.989746,1099.158691 461.329193,1104.850708 459.469513,1108.963013 
	C457.712311,1112.848755 452.712952,1115.268188 449.689880,1117.860718 
	C449.028992,1117.777100 449.523285,1117.839600 450.400055,1117.928955 
z"/>
<path fill="#FAFAFA" opacity="1.000000" stroke="none" 
	d="
M1132.009033,977.373535 
	C1128.570435,977.373596 1125.630005,977.373596 1121.922729,977.373596 
	C1125.735107,968.200073 1129.264160,959.708191 1133.289185,950.023193 
	C1137.069824,959.617981 1140.431152,968.148315 1144.066284,977.373535 
	C1139.712036,977.373535 1136.109497,977.373535 1132.009033,977.373535 
z"/>
<path fill="#FAFAFA" opacity="1.000000" stroke="none" 
	d="
M535.886963,955.187256 
	C538.766968,962.612854 541.531372,969.676147 544.432739,977.089233 
	C536.929443,977.089233 530.041931,977.089233 522.528687,977.089233 
	C526.264893,968.106812 529.809326,959.585449 533.603149,950.464539 
	C534.490601,952.249023 535.131042,953.536987 535.886963,955.187256 
z"/>
<path fill="#FAFAFA" opacity="1.000000" stroke="none" 
	d="
M377.444458,1132.340820 
	C370.694824,1132.367188 364.391235,1132.367188 357.187042,1132.367188 
	C361.025024,1123.127075 364.599487,1114.521484 368.542542,1105.028320 
	C372.180573,1114.236450 375.478912,1122.544189 378.696808,1130.882812 
	C378.822266,1131.207886 378.176788,1131.830444 377.444458,1132.340820 
z"/>
</svg>